<svg width="170" height="206" viewBox="0 0 170 206" fill="none" xmlns="http://www.w3.org/2000/svg">
<g opacity="0.1">
<circle cx="4" cy="202" r="4" fill="#FF8D00"/>
<circle cx="22" cy="202" r="4" fill="#FF8D00"/>
<circle cx="40" cy="202" r="4" fill="#FF8D00"/>
<circle cx="58" cy="202" r="4" fill="#FF8D00"/>
<circle cx="76" cy="202" r="4" fill="#FF8D00"/>
<circle cx="94" cy="202" r="4" fill="#FF8D00"/>
<circle cx="112" cy="202" r="4" fill="#FF8D00"/>
<circle cx="130" cy="202" r="4" fill="#FF8D00"/>
<circle cx="148" cy="202" r="4" fill="#FF8D00"/>
<circle cx="166" cy="202" r="4" fill="#FF8D00"/>
</g>
<g opacity="0.1">
<circle cx="4" cy="184" r="4" fill="#FF8D00"/>
<circle cx="22" cy="184" r="4" fill="#FF8D00"/>
<circle cx="40" cy="184" r="4" fill="#FF8D00"/>
<circle cx="58" cy="184" r="4" fill="#FF8D00"/>
<circle cx="76" cy="184" r="4" fill="#FF8D00"/>
<circle cx="94" cy="184" r="4" fill="#FF8D00"/>
<circle cx="112" cy="184" r="4" fill="#FF8D00"/>
<circle cx="130" cy="184" r="4" fill="#FF8D00"/>
<circle cx="148" cy="184" r="4" fill="#FF8D00"/>
<circle cx="166" cy="184" r="4" fill="#FF8D00"/>
</g>
<g opacity="0.1">
<circle cx="4" cy="166" r="4" fill="#FF8D00"/>
<circle cx="22" cy="166" r="4" fill="#FF8D00"/>
<circle cx="40" cy="166" r="4" fill="#FF8D00"/>
<circle cx="58" cy="166" r="4" fill="#FF8D00"/>
<circle cx="76" cy="166" r="4" fill="#FF8D00"/>
<circle cx="94" cy="166" r="4" fill="#FF8D00"/>
<circle cx="112" cy="166" r="4" fill="#FF8D00"/>
<circle cx="130" cy="166" r="4" fill="#FF8D00"/>
<circle cx="148" cy="166" r="4" fill="#FF8D00"/>
<circle cx="166" cy="166" r="4" fill="#FF8D00"/>
</g>
<g opacity="0.1">
<circle cx="4" cy="148" r="4" fill="#FF8D00"/>
<circle cx="22" cy="148" r="4" fill="#FF8D00"/>
<circle cx="40" cy="148" r="4" fill="#FF8D00"/>
<circle cx="58" cy="148" r="4" fill="#FF8D00"/>
<circle cx="76" cy="148" r="4" fill="#FF8D00"/>
<circle cx="94" cy="148" r="4" fill="#FF8D00"/>
<circle cx="112" cy="148" r="4" fill="#FF8D00"/>
<circle cx="130" cy="148" r="4" fill="#FF8D00"/>
<circle cx="148" cy="148" r="4" fill="#FF8D00"/>
<circle cx="166" cy="148" r="4" fill="#FF8D00"/>
</g>
<g opacity="0.1">
<circle cx="4" cy="130" r="4" fill="#FF8D00"/>
<circle cx="22" cy="130" r="4" fill="#FF8D00"/>
<circle cx="40" cy="130" r="4" fill="#FF8D00"/>
<circle cx="58" cy="130" r="4" fill="#FF8D00"/>
<circle cx="76" cy="130" r="4" fill="#FF8D00"/>
<circle cx="94" cy="130" r="4" fill="#FF8D00"/>
<circle cx="112" cy="130" r="4" fill="#FF8D00"/>
<circle cx="130" cy="130" r="4" fill="#FF8D00"/>
<circle cx="148" cy="130" r="4" fill="#FF8D00"/>
<circle cx="166" cy="130" r="4" fill="#FF8D00"/>
</g>
<g opacity="0.1">
<circle cx="4" cy="112" r="4" fill="#FF8D00"/>
<circle cx="22" cy="112" r="4" fill="#FF8D00"/>
<circle cx="40" cy="112" r="4" fill="#FF8D00"/>
<circle cx="58" cy="112" r="4" fill="#FF8D00"/>
<circle cx="76" cy="112" r="4" fill="#FF8D00"/>
<circle cx="94" cy="112" r="4" fill="#FF8D00"/>
<circle cx="112" cy="112" r="4" fill="#FF8D00"/>
<circle cx="130" cy="112" r="4" fill="#FF8D00"/>
<circle cx="148" cy="112" r="4" fill="#FF8D00"/>
<circle cx="166" cy="112" r="4" fill="#FF8D00"/>
</g>
<g opacity="0.1">
<circle cx="4" cy="94" r="4" fill="#FF8D00"/>
<circle cx="22" cy="94" r="4" fill="#FF8D00"/>
<circle cx="40" cy="94" r="4" fill="#FF8D00"/>
<circle cx="58" cy="94" r="4" fill="#FF8D00"/>
<circle cx="76" cy="94" r="4" fill="#FF8D00"/>
<circle cx="94" cy="94" r="4" fill="#FF8D00"/>
<circle cx="112" cy="94" r="4" fill="#FF8D00"/>
<circle cx="130" cy="94" r="4" fill="#FF8D00"/>
<circle cx="148" cy="94" r="4" fill="#FF8D00"/>
<circle cx="166" cy="94" r="4" fill="#FF8D00"/>
</g>
<g opacity="0.1">
<circle cx="4" cy="76" r="4" fill="#FF8D00"/>
<circle cx="22" cy="76" r="4" fill="#FF8D00"/>
<circle cx="40" cy="76" r="4" fill="#FF8D00"/>
<circle cx="58" cy="76" r="4" fill="#FF8D00"/>
<circle cx="76" cy="76" r="4" fill="#FF8D00"/>
<circle cx="94" cy="76" r="4" fill="#FF8D00"/>
<circle cx="112" cy="76" r="4" fill="#FF8D00"/>
<circle cx="130" cy="76" r="4" fill="#FF8D00"/>
<circle cx="148" cy="76" r="4" fill="#FF8D00"/>
<circle cx="166" cy="76" r="4" fill="#FF8D00"/>
</g>
<g opacity="0.1">
<circle cx="4" cy="58" r="4" fill="#FF8D00"/>
<circle cx="22" cy="58" r="4" fill="#FF8D00"/>
<circle cx="40" cy="58" r="4" fill="#FF8D00"/>
<circle cx="58" cy="58" r="4" fill="#FF8D00"/>
<circle cx="76" cy="58" r="4" fill="#FF8D00"/>
<circle cx="94" cy="58" r="4" fill="#FF8D00"/>
<circle cx="112" cy="58" r="4" fill="#FF8D00"/>
<circle cx="130" cy="58" r="4" fill="#FF8D00"/>
<circle cx="148" cy="58" r="4" fill="#FF8D00"/>
<circle cx="166" cy="58" r="4" fill="#FF8D00"/>
</g>
<g opacity="0.1">
<circle cx="4" cy="40" r="4" fill="#FF8D00"/>
<circle cx="22" cy="40" r="4" fill="#FF8D00"/>
<circle cx="40" cy="40" r="4" fill="#FF8D00"/>
<circle cx="58" cy="40" r="4" fill="#FF8D00"/>
<circle cx="76" cy="40" r="4" fill="#FF8D00"/>
<circle cx="94" cy="40" r="4" fill="#FF8D00"/>
<circle cx="112" cy="40" r="4" fill="#FF8D00"/>
<circle cx="130" cy="40" r="4" fill="#FF8D00"/>
<circle cx="148" cy="40" r="4" fill="#FF8D00"/>
<circle cx="166" cy="40" r="4" fill="#FF8D00"/>
</g>
<g opacity="0.1">
<circle cx="4" cy="22" r="4" fill="#FF8D00"/>
<circle cx="22" cy="22" r="4" fill="#FF8D00"/>
<circle cx="40" cy="22" r="4" fill="#FF8D00"/>
<circle cx="58" cy="22" r="4" fill="#FF8D00"/>
<circle cx="76" cy="22" r="4" fill="#FF8D00"/>
<circle cx="94" cy="22" r="4" fill="#FF8D00"/>
<circle cx="112" cy="22" r="4" fill="#FF8D00"/>
<circle cx="130" cy="22" r="4" fill="#FF8D00"/>
<circle cx="148" cy="22" r="4" fill="#FF8D00"/>
<circle cx="166" cy="22" r="4" fill="#FF8D00"/>
</g>
<g opacity="0.1">
<circle cx="4" cy="4" r="4" fill="#FF8D00"/>
<circle cx="22" cy="4" r="4" fill="#FF8D00"/>
<circle cx="40" cy="4" r="4" fill="#FF8D00"/>
<circle cx="58" cy="4" r="4" fill="#FF8D00"/>
<circle cx="76" cy="4" r="4" fill="#FF8D00"/>
<circle cx="94" cy="4" r="4" fill="#FF8D00"/>
<circle cx="112" cy="4" r="4" fill="#FF8D00"/>
<circle cx="130" cy="4" r="4" fill="#FF8D00"/>
<circle cx="148" cy="4" r="4" fill="#FF8D00"/>
<circle cx="166" cy="4" r="4" fill="#FF8D00"/>
</g>
</svg>
