<svg width="130" height="42" viewBox="0 0 130 42" fill="none" xmlns="http://www.w3.org/2000/svg">
<g clip-path="url(#clip0_84_912)">
<path d="M15.3702 0V4.18517H10.301V19.3178H5.06873V4.18517H0V0H15.3702Z" fill="#FF8D00"/>
<path d="M32.2672 15.1326V19.3178H17.5508V0H32.2749V4.18517H22.7831V7.56609H32.2749V11.7517H22.7831V15.1326H32.2672Z" fill="#FF8D00"/>
<path d="M35.4781 37.4923V41.6779H20.7617V22.3596H35.4863V26.5453H25.994V29.9257H35.4863V34.1118H25.994V37.4923H35.4781Z" fill="#FF8D00"/>
<path d="M18.586 32.0188C18.586 38.0559 14.9071 41.6779 8.77521 41.6779H1.08984V22.3596H8.77521C14.9071 22.3596 18.586 25.9816 18.586 32.0188ZM13.3537 32.0188C13.3537 28.5038 11.718 26.5453 8.77521 26.5453H6.32166V37.4923H8.77521C11.7185 37.4923 13.3537 35.5337 13.3537 32.0188Z" fill="#FF8D00"/>
<path d="M53.7955 35.8824C53.7955 39.8265 50.7979 41.9996 45.4563 41.9996C40.0879 41.9996 37.1172 39.6924 37.1172 35.5603H42.3495C42.3495 36.9022 43.4671 37.6534 45.4563 37.6534C47.4456 37.6534 48.5632 37.0092 48.5632 35.8824C48.5632 32.0188 37.2808 36.0434 37.2808 28.1548C37.2808 24.2382 40.1971 22.0381 45.4563 22.0381C50.7156 22.0381 53.6324 24.3452 53.6324 28.4774H48.4001C48.4001 27.1355 47.3369 26.3848 45.4563 26.3848C43.5758 26.3848 42.5131 27.0285 42.5131 28.1548C42.5131 32.0188 53.7955 27.9942 53.7955 35.8824Z" fill="#FF8D00"/>
<path d="M76.0352 41.6779V22.3596H90.0973V26.5453H81.2675V30.838H88.135V35.0236H81.2675V41.6779H76.0352Z" fill="#FF8D00"/>
<path d="M100.888 37.4923V41.6779H91.7324V37.4923H93.6943V26.5453H91.7324V22.3596H100.888V26.5453H98.9266V37.4923H100.888Z" fill="#FF8D00"/>
<path d="M118.331 37.4923V41.6779H103.615V22.3596H118.326V26.5453H108.849V29.9257H118.326V34.1118H108.849V37.4923H118.331Z" fill="#FF8D00"/>
<path d="M129.124 37.4923V41.6779H119.967V37.4923H121.929V26.5453H119.967V22.3596H129.124V26.5453H127.161V37.4923H129.124Z" fill="#FF8D00"/>
<path d="M63.224 37.8144H61.327L64.3704 31.026L67.4137 37.8144H65.779V41.678H73.8541L64.3704 21.7164L54.8867 41.678H63.224V37.8144Z" fill="#FF8D00"/>
</g>
<defs>
<clipPath id="clip0_84_912">
<rect width="129.124" height="42" fill="white"/>
</clipPath>
</defs>
</svg>
