<svg width="34" height="34" viewBox="0 0 34 34" fill="none" xmlns="http://www.w3.org/2000/svg">
<rect width="34" height="34" rx="8" fill="#293142"/>
<path d="M21.9 8.5C21.9 8.22386 21.6761 8 21.4 8H19.2C18.0065 8 16.8619 8.47411 16.018 9.31802C15.1741 10.1619 14.7 11.3065 14.7 12.5V14.7C14.7 14.9761 14.4761 15.2 14.2 15.2H12.5C12.2239 15.2 12 15.4239 12 15.7V18.3C12 18.5761 12.2239 18.8 12.5 18.8H14.2C14.4761 18.8 14.7 19.0239 14.7 19.3V25.5C14.7 25.7761 14.9239 26 15.2 26H17.8C18.0761 26 18.3 25.7761 18.3 25.5V19.3C18.3 19.0239 18.5239 18.8 18.8 18.8H20.6096C20.839 18.8 21.039 18.6439 21.0947 18.4213L21.7447 15.8213C21.8236 15.5057 21.5849 15.2 21.2596 15.2H18.8C18.5239 15.2 18.3 14.9761 18.3 14.7V12.5C18.3 12.2613 18.3948 12.0324 18.5636 11.8636C18.7324 11.6948 18.9613 11.6 19.2 11.6H21.4C21.6761 11.6 21.9 11.3761 21.9 11.1V8.5Z" stroke="#F8F9FA" stroke-linecap="round" stroke-linejoin="round"/>
</svg>
