<svg width="34" height="34" viewBox="0 0 34 34" fill="none" xmlns="http://www.w3.org/2000/svg">
<rect width="34" height="34" rx="8" fill="#293142"/>
<path d="M21.5 8H12.5C10.0147 8 8 10.0147 8 12.5V21.5C8 23.9853 10.0147 26 12.5 26H21.5C23.9853 26 26 23.9853 26 21.5V12.5C26 10.0147 23.9853 8 21.5 8Z" stroke="#F8F9FA" stroke-linecap="round" stroke-linejoin="round"/>
<path d="M20.5986 16.4328C20.7096 17.1818 20.5817 17.9468 20.2329 18.6189C19.8842 19.291 19.3324 19.8361 18.656 20.1765C17.9797 20.5169 17.2132 20.6354 16.4656 20.5151C15.718 20.3948 15.0273 20.0419 14.4919 19.5064C13.9565 18.971 13.6035 18.2804 13.4832 17.5328C13.3629 16.7852 13.4814 16.0187 13.8219 15.3423C14.1623 14.666 14.7073 14.1141 15.3795 13.7654C16.0516 13.4167 16.8165 13.2887 17.5656 13.3998C18.3296 13.5131 19.0369 13.8691 19.5831 14.4153C20.1292 14.9614 20.4853 15.6688 20.5986 16.4328Z" stroke="#F8F9FA" stroke-linecap="round" stroke-linejoin="round"/>
<path d="M21.9492 12.0498H21.9582" stroke="#F8F9FA" stroke-linecap="round" stroke-linejoin="round"/>
</svg>
