<svg width="34" height="34" viewBox="0 0 34 34" fill="none" xmlns="http://www.w3.org/2000/svg">
<rect width="34" height="34" rx="8" fill="#293142"/>
<path d="M-nan -nanL27.5395 11.4199C27.4207 10.9453 27.1788 10.5105 26.8381 10.1593C26.4975 9.8082 26.0703 9.55316 25.5996 9.41998C23.8796 9 17 9 17 9C17 9 17 9 17 9C17 9 10.1204 9 8.40045 9.45998C7.92972 9.59315 7.50247 9.8482 7.16186 10.1993C6.82124 10.5505 6.57933 10.9853 6.46055 11.4599C6.14578 13.2053 5.99181 14.976 6.00057 16.7496C5.98935 18.5366 6.14333 20.3207 6.46055 22.0793C6.5915 22.5391 6.83883 22.9574 7.17865 23.2937C7.51847 23.6301 7.93929 23.873 8.40045 23.9992C10.1204 24.4592 17 24.4592 17 24.4592C17 24.4592 17 24.4592 17 24.4592C17 24.4592 23.8796 24.4592 25.5996 23.9992C26.0703 23.866 26.4975 23.611 26.8381 23.2599C27.1788 22.9087 27.4207 22.4739 27.5395 21.9993C27.8518 20.267 28.0058 18.5098 27.9994 16.7496C28.0107 14.9626 27.8567 13.1785 27.5395 11.4199L-nan -nanL-nan -nanZ" stroke="#F8F9FA" stroke-linecap="round" stroke-linejoin="round"/>
<path d="M14.75 19.1596C14.75 19.5431 15.1639 19.7838 15.4972 19.5942L19.7354 17.184C20.0725 16.9922 20.0725 16.5064 19.7354 16.3147L15.4972 13.9044C15.1639 13.7148 14.75 13.9556 14.75 14.339V19.1596Z" stroke="#F8F9FA" stroke-linecap="round" stroke-linejoin="round"/>
</svg>
