<svg width="34" height="34" viewBox="0 0 34 34" fill="none" xmlns="http://www.w3.org/2000/svg">
<rect width="34" height="34" rx="8" fill="#293142"/>
<path d="M-nan -nanL28.0691 8.01009C27.1965 8.62557 26.239 9.10958 25.2272 9.44716C25.0406 9.50941 24.838 9.44764 24.6986 9.30889C24.1254 8.73842 23.4074 8.33165 22.619 8.1344C21.7259 7.91094 20.7858 7.96715 19.9257 8.29543C19.0655 8.62372 18.327 9.20824 17.8099 9.96994C17.2929 10.7316 17.0222 11.6338 17.0345 12.5543V13.0702C17.0345 13.3413 16.8184 13.5643 16.5474 13.559C14.9509 13.5276 13.3796 13.1391 11.9496 12.4193C10.4633 11.6712 9.17338 10.5873 8.18112 9.25495C8.07135 9.10756 7.96192 9.11371 7.89704 9.28565C7.33782 10.7676 5.08925 17.9296 12.2118 21.6628C12.5592 21.8449 12.5994 22.3355 12.2589 22.5301C10.9709 23.2665 9.55728 23.7488 8.09523 23.9551C7.57378 24.0286 7.409 24.7655 7.89892 24.9587C16.5027 28.3505 26.0628 23.2619 26.0628 12.5242C26.0621 12.3339 26.0495 12.1438 26.0249 11.9553C26.0033 11.7898 26.0547 11.622 26.1694 11.5008C27.0944 10.5234 27.7499 9.32057 28.0691 8.01009L-nan -nanL-nan -nanZ" stroke="#F8F9FA" stroke-linecap="round" stroke-linejoin="round"/>
</svg>
