<svg width="397" height="112" viewBox="0 0 397 112" fill="none" xmlns="http://www.w3.org/2000/svg">
<g clip-path="url(#clip0_84_1672)">
<path d="M20.236 0V5.58023H13.562V25.7571H6.67332V5.58023H0V0H20.236Z" fill="#FF8D00"/>
<path d="M42.4807 20.1769V25.7571H23.1055V0H42.4908V5.58023H29.9941V10.0881H42.4908V15.669H29.9941V20.1769H42.4807Z" fill="#FF8D00"/>
<path d="M46.7111 49.9899V55.5707H27.3359V29.813H46.7219V35.3939H34.2246V39.9011H46.7219V45.4826H34.2246V49.9899H46.7111Z" fill="#FF8D00"/>
<path d="M24.4685 42.6919C24.4685 50.7414 19.625 55.5707 11.5519 55.5707H1.43359V29.813H11.5519C19.625 29.813 24.4685 34.6423 24.4685 42.6919ZM17.5798 42.6919C17.5798 38.0052 15.4263 35.3939 11.5519 35.3939H8.32163V49.9899H11.5519C15.4269 49.9899 17.5798 47.3785 17.5798 42.6919Z" fill="#FF8D00"/>
<path d="M70.8253 47.8429C70.8253 53.1017 66.8787 55.9991 59.8462 55.9991C52.7783 55.9991 48.8672 52.9229 48.8672 47.4134H55.7559C55.7559 49.2026 57.2272 50.2042 59.8462 50.2042C62.4653 50.2042 63.9366 49.3453 63.9366 47.8429C63.9366 42.6915 49.0825 48.0576 49.0825 37.5394C49.0825 32.3173 52.9221 29.3838 59.8462 29.3838C66.7704 29.3838 70.6106 32.46 70.6106 37.9695H63.7219C63.7219 36.1804 62.3221 35.1794 59.8462 35.1794C57.3704 35.1794 55.9712 36.0376 55.9712 37.5394C55.9712 42.6915 70.8253 37.3253 70.8253 47.8429Z" fill="#FF8D00"/>
<path d="M100.105 55.5707V29.813H118.619V35.3939H106.994V41.1174H116.036V46.6983H106.994V55.5707H100.105Z" fill="#FF8D00"/>
<path d="M132.828 49.9899V55.5707H120.773V49.9899H123.356V35.3939H120.773V29.813H132.828V35.3939H130.245V49.9899H132.828Z" fill="#FF8D00"/>
<path d="M155.789 49.9899V55.5707H136.414V29.813H155.782V35.3939H143.305V39.9011H155.782V45.4826H143.305V49.9899H155.789Z" fill="#FF8D00"/>
<path d="M170.001 49.9899V55.5707H157.945V49.9899H160.529V35.3939H157.945V29.813H170.001V35.3939H167.418V49.9899H170.001Z" fill="#FF8D00"/>
<path d="M83.2382 50.419H80.7408L84.7476 41.3679L88.7544 50.419H86.6021V55.5704H97.2335L84.7476 28.9551L72.2617 55.5704H83.2382V50.419Z" fill="#FF8D00"/>
</g>
<path d="M2.28 88V76.16H3.848V86.624H9.944V88H2.28ZM14.068 88.16C13.2253 88.16 12.5533 87.8987 12.052 87.376C11.5507 86.8533 11.3 86.128 11.3 85.2V79.52H12.82V85.12C12.82 85.6747 12.9693 86.1013 13.268 86.4C13.5773 86.6987 13.9827 86.848 14.484 86.848C14.996 86.848 15.4067 86.7147 15.716 86.448C16.0253 86.1813 16.2493 85.84 16.388 85.424C16.5267 85.008 16.596 84.5813 16.596 84.144V79.52H18.116V88H16.596V86.784H16.5C16.436 86.912 16.3133 87.088 16.132 87.312C15.9507 87.5253 15.6947 87.7227 15.364 87.904C15.0333 88.0747 14.6013 88.16 14.068 88.16ZM24.1225 91.36C23.4185 91.36 22.8318 91.264 22.3625 91.072C21.8932 90.8907 21.5145 90.656 21.2265 90.368C20.9492 90.0907 20.7412 89.8133 20.6025 89.536C20.4638 89.2587 20.3732 89.024 20.3305 88.832C20.2878 88.6507 20.2665 88.56 20.2665 88.56H21.7865C21.7865 88.56 21.8132 88.6347 21.8665 88.784C21.9198 88.9333 22.0212 89.104 22.1705 89.296C22.3305 89.488 22.5652 89.6587 22.8745 89.808C23.1838 89.9573 23.5998 90.032 24.1225 90.032C24.7412 90.032 25.2265 89.9093 25.5785 89.664C25.9305 89.4293 26.1812 89.12 26.3305 88.736C26.4905 88.352 26.5705 87.9467 26.5705 87.52V86.544H26.4905C26.3838 86.7253 26.2132 86.9333 25.9785 87.168C25.7545 87.392 25.4558 87.5893 25.0825 87.76C24.7092 87.92 24.2505 88 23.7065 88C23.0665 88 22.5065 87.8773 22.0265 87.632C21.5465 87.3867 21.1465 87.056 20.8265 86.64C20.5172 86.224 20.2825 85.76 20.1225 85.248C19.9625 84.736 19.8825 84.2133 19.8825 83.68C19.8825 83.1467 19.9625 82.624 20.1225 82.112C20.2825 81.6 20.5172 81.136 20.8265 80.72C21.1465 80.304 21.5465 79.9733 22.0265 79.728C22.5065 79.4827 23.0665 79.36 23.7065 79.36C24.2505 79.36 24.7092 79.4453 25.0825 79.616C25.4558 79.776 25.7545 79.968 25.9785 80.192C26.2132 80.416 26.3838 80.624 26.4905 80.816H26.5705V79.52H28.0905V87.504C28.0905 88.688 27.7438 89.6267 27.0505 90.32C26.3678 91.0133 25.3918 91.36 24.1225 91.36ZM23.9945 86.704C24.5598 86.704 25.0292 86.56 25.4025 86.272C25.7865 85.9733 26.0692 85.5947 26.2505 85.136C26.4425 84.6773 26.5385 84.192 26.5385 83.68C26.5385 83.168 26.4425 82.6827 26.2505 82.224C26.0692 81.7547 25.7865 81.376 25.4025 81.088C25.0292 80.8 24.5598 80.656 23.9945 80.656C23.4292 80.656 22.9545 80.8 22.5705 81.088C22.1865 81.376 21.8985 81.7547 21.7065 82.224C21.5252 82.6827 21.4345 83.168 21.4345 83.68C21.4345 84.192 21.5252 84.6773 21.7065 85.136C21.8985 85.5947 22.1865 85.9733 22.5705 86.272C22.9545 86.56 23.4292 86.704 23.9945 86.704ZM33.3713 79.36C33.9046 79.36 34.3526 79.4453 34.7153 79.616C35.0779 79.7867 35.3713 79.9893 35.5953 80.224C35.8193 80.448 35.9899 80.6613 36.1073 80.864H36.2033V79.52H37.7233V88H36.2033V86.656H36.1073C35.9899 86.8587 35.8193 87.0773 35.5953 87.312C35.3713 87.5467 35.0779 87.7493 34.7153 87.92C34.3526 88.08 33.9046 88.16 33.3713 88.16C32.7313 88.16 32.1713 88.0373 31.6913 87.792C31.2113 87.536 30.8113 87.2 30.4913 86.784C30.1713 86.3573 29.9313 85.8827 29.7713 85.36C29.6113 84.8373 29.5313 84.304 29.5313 83.76C29.5313 83.216 29.6113 82.6827 29.7713 82.16C29.9313 81.6373 30.1713 81.168 30.4913 80.752C30.8113 80.3253 31.2113 79.9893 31.6913 79.744C32.1713 79.488 32.7313 79.36 33.3713 79.36ZM33.6273 80.656C33.0619 80.656 32.5873 80.8107 32.2033 81.12C31.8193 81.4187 31.5313 81.8027 31.3393 82.272C31.1579 82.7413 31.0673 83.2373 31.0673 83.76C31.0673 84.272 31.1579 84.768 31.3393 85.248C31.5313 85.7173 31.8193 86.1067 32.2033 86.416C32.5873 86.7147 33.0619 86.864 33.6273 86.864C34.1926 86.864 34.6619 86.7147 35.0353 86.416C35.4193 86.1067 35.7019 85.7173 35.8833 85.248C36.0753 84.768 36.1713 84.272 36.1713 83.76C36.1713 83.2373 36.0753 82.7413 35.8833 82.272C35.7019 81.8027 35.4193 81.4187 35.0353 81.12C34.6619 80.8107 34.1926 80.656 33.6273 80.656ZM39.6369 88V79.52H41.1569V80.576H41.2209C41.4022 80.256 41.6689 79.9733 42.0209 79.728C42.3729 79.4827 42.8689 79.36 43.5089 79.36C43.6902 79.36 43.8555 79.3707 44.0049 79.392C44.1542 79.4027 44.2289 79.408 44.2289 79.408V80.864C44.2289 80.864 44.1435 80.8587 43.9729 80.848C43.8129 80.8267 43.6422 80.816 43.4609 80.816C42.7249 80.816 42.1542 81.0293 41.7489 81.456C41.3542 81.872 41.1569 82.5547 41.1569 83.504V88H39.6369ZM52.054 88.16C51.4033 88.16 50.8647 88.0693 50.438 87.888C50.022 87.7067 49.6913 87.4827 49.446 87.216C49.2007 86.9387 49.0193 86.6667 48.902 86.4C48.7847 86.1227 48.71 85.8933 48.678 85.712C48.646 85.5307 48.63 85.44 48.63 85.44H50.166C50.166 85.44 50.182 85.5147 50.214 85.664C50.2567 85.8027 50.3367 85.968 50.454 86.16C50.582 86.3413 50.774 86.5067 51.03 86.656C51.2967 86.7947 51.6487 86.864 52.086 86.864C52.5873 86.864 52.9767 86.7467 53.254 86.512C53.5313 86.2667 53.67 85.968 53.67 85.616C53.67 85.3067 53.558 85.0613 53.334 84.88C53.1207 84.6987 52.8113 84.56 52.406 84.464L51.254 84.192C50.8273 84.0853 50.4273 83.9413 50.054 83.76C49.6807 83.5787 49.3767 83.3333 49.142 83.024C48.918 82.704 48.806 82.3093 48.806 81.84C48.806 81.1147 49.078 80.5227 49.622 80.064C50.166 79.5947 50.8753 79.36 51.75 79.36C52.3367 79.36 52.822 79.4453 53.206 79.616C53.59 79.776 53.894 79.9787 54.118 80.224C54.3527 80.4693 54.5233 80.7147 54.63 80.96C54.7473 81.2053 54.822 81.4133 54.854 81.584C54.886 81.744 54.902 81.824 54.902 81.824H53.43C53.43 81.824 53.414 81.7653 53.382 81.648C53.35 81.52 53.2753 81.3813 53.158 81.232C53.0513 81.072 52.886 80.9333 52.662 80.816C52.438 80.688 52.1393 80.624 51.766 80.624C51.254 80.624 50.8807 80.7413 50.646 80.976C50.4113 81.2107 50.294 81.4667 50.294 81.744C50.294 82.0107 50.4007 82.2293 50.614 82.4C50.838 82.56 51.126 82.6827 51.478 82.768L52.646 83.04C53.3713 83.2107 53.9687 83.4933 54.438 83.888C54.918 84.272 55.158 84.8267 55.158 85.552C55.158 86.0213 55.0353 86.4587 54.79 86.864C54.5447 87.2587 54.1927 87.5733 53.734 87.808C53.2753 88.0427 52.7153 88.16 52.054 88.16ZM60.4547 88.16C59.7614 88.16 59.1587 88.0373 58.6467 87.792C58.1454 87.536 57.7294 87.1947 57.3987 86.768C57.0787 86.3413 56.8387 85.872 56.6787 85.36C56.5187 84.8373 56.4387 84.304 56.4387 83.76C56.4387 83.2267 56.5134 82.6987 56.6627 82.176C56.8227 81.6533 57.0627 81.1787 57.3827 80.752C57.7134 80.3253 58.1241 79.9893 58.6147 79.744C59.1161 79.488 59.7081 79.36 60.3907 79.36C61.1161 79.36 61.7561 79.5253 62.3107 79.856C62.8654 80.1867 63.3027 80.6773 63.6227 81.328C63.9427 81.9787 64.1027 82.7947 64.1027 83.776V84.224H57.9747C58.0067 84.704 58.1187 85.1467 58.3107 85.552C58.5134 85.9467 58.7961 86.2667 59.1587 86.512C59.5214 86.7467 59.9534 86.864 60.4547 86.864C60.8921 86.864 61.2441 86.7947 61.5107 86.656C61.7881 86.5067 62.0067 86.336 62.1667 86.144C62.3267 85.952 62.4334 85.7867 62.4867 85.648C62.5507 85.4987 62.5827 85.424 62.5827 85.424H64.0067C64.0067 85.424 63.9801 85.52 63.9267 85.712C63.8734 85.8933 63.7774 86.1173 63.6387 86.384C63.5001 86.6507 63.2974 86.9227 63.0307 87.2C62.7641 87.4667 62.4227 87.696 62.0067 87.888C61.5907 88.0693 61.0734 88.16 60.4547 88.16ZM57.9907 83.04H62.6147C62.5934 82.4853 62.4761 82.0373 62.2627 81.696C62.0494 81.344 61.7774 81.0827 61.4467 80.912C61.1161 80.7413 60.7641 80.656 60.3907 80.656C59.7187 80.656 59.1694 80.8747 58.7427 81.312C58.3161 81.7387 58.0654 82.3147 57.9907 83.04ZM69.8587 91.36C69.1547 91.36 68.5681 91.264 68.0987 91.072C67.6294 90.8907 67.2507 90.656 66.9627 90.368C66.6854 90.0907 66.4774 89.8133 66.3387 89.536C66.2001 89.2587 66.1094 89.024 66.0667 88.832C66.0241 88.6507 66.0027 88.56 66.0027 88.56H67.5227C67.5227 88.56 67.5494 88.6347 67.6027 88.784C67.6561 88.9333 67.7574 89.104 67.9067 89.296C68.0667 89.488 68.3014 89.6587 68.6107 89.808C68.9201 89.9573 69.3361 90.032 69.8587 90.032C70.4774 90.032 70.9627 89.9093 71.3147 89.664C71.6667 89.4293 71.9174 89.12 72.0667 88.736C72.2267 88.352 72.3067 87.9467 72.3067 87.52V86.544H72.2267C72.1201 86.7253 71.9494 86.9333 71.7147 87.168C71.4907 87.392 71.1921 87.5893 70.8187 87.76C70.4454 87.92 69.9867 88 69.4427 88C68.8027 88 68.2427 87.8773 67.7627 87.632C67.2827 87.3867 66.8827 87.056 66.5627 86.64C66.2534 86.224 66.0187 85.76 65.8587 85.248C65.6987 84.736 65.6187 84.2133 65.6187 83.68C65.6187 83.1467 65.6987 82.624 65.8587 82.112C66.0187 81.6 66.2534 81.136 66.5627 80.72C66.8827 80.304 67.2827 79.9733 67.7627 79.728C68.2427 79.4827 68.8027 79.36 69.4427 79.36C69.9867 79.36 70.4454 79.4453 70.8187 79.616C71.1921 79.776 71.4907 79.968 71.7147 80.192C71.9494 80.416 72.1201 80.624 72.2267 80.816H72.3067V79.52H73.8267V87.504C73.8267 88.688 73.4801 89.6267 72.7867 90.32C72.1041 91.0133 71.1281 91.36 69.8587 91.36ZM69.7307 86.704C70.2961 86.704 70.7654 86.56 71.1387 86.272C71.5227 85.9733 71.8054 85.5947 71.9867 85.136C72.1787 84.6773 72.2747 84.192 72.2747 83.68C72.2747 83.168 72.1787 82.6827 71.9867 82.224C71.8054 81.7547 71.5227 81.376 71.1387 81.088C70.7654 80.8 70.2961 80.656 69.7307 80.656C69.1654 80.656 68.6907 80.8 68.3067 81.088C67.9227 81.376 67.6347 81.7547 67.4427 82.224C67.2614 82.6827 67.1707 83.168 67.1707 83.68C67.1707 84.192 67.2614 84.6773 67.4427 85.136C67.6347 85.5947 67.9227 85.9733 68.3067 86.272C68.6907 86.56 69.1654 86.704 69.7307 86.704ZM78.508 88.16C77.6653 88.16 76.9933 87.8987 76.492 87.376C75.9907 86.8533 75.74 86.128 75.74 85.2V79.52H77.26V85.12C77.26 85.6747 77.4093 86.1013 77.708 86.4C78.0173 86.6987 78.4227 86.848 78.924 86.848C79.436 86.848 79.8467 86.7147 80.156 86.448C80.4653 86.1813 80.6893 85.84 80.828 85.424C80.9667 85.008 81.036 84.5813 81.036 84.144V79.52H82.556V88H81.036V86.784H80.94C80.876 86.912 80.7533 87.088 80.572 87.312C80.3907 87.5253 80.1347 87.7227 79.804 87.904C79.4733 88.0747 79.0413 88.16 78.508 88.16ZM84.4825 88V79.52H86.0025V80.576H86.0665C86.2478 80.256 86.5145 79.9733 86.8665 79.728C87.2185 79.4827 87.7145 79.36 88.3545 79.36C88.5358 79.36 88.7012 79.3707 88.8505 79.392C88.9998 79.4027 89.0745 79.408 89.0745 79.408V80.864C89.0745 80.864 88.9892 80.8587 88.8185 80.848C88.6585 80.8267 88.4878 80.816 88.3065 80.816C87.5705 80.816 86.9998 81.0293 86.5945 81.456C86.1998 81.872 86.0025 82.5547 86.0025 83.504V88H84.4825ZM93.8035 88.16C92.8968 88.16 92.1342 87.952 91.5155 87.536C90.8968 87.1093 90.4275 86.56 90.1075 85.888C89.7875 85.216 89.6275 84.5067 89.6275 83.76C89.6275 83.0027 89.7875 82.2933 90.1075 81.632C90.4275 80.96 90.8968 80.416 91.5155 80C92.1342 79.5733 92.8968 79.36 93.8035 79.36C94.7102 79.36 95.4728 79.5733 96.0915 80C96.7102 80.416 97.1795 80.96 97.4995 81.632C97.8195 82.2933 97.9795 83.0027 97.9795 83.76C97.9795 84.5067 97.8195 85.216 97.4995 85.888C97.1795 86.56 96.7102 87.1093 96.0915 87.536C95.4728 87.952 94.7102 88.16 93.8035 88.16ZM93.8035 86.832C94.3795 86.832 94.8595 86.688 95.2435 86.4C95.6382 86.1013 95.9315 85.7173 96.1235 85.248C96.3262 84.7787 96.4275 84.2827 96.4275 83.76C96.4275 83.2267 96.3262 82.7307 96.1235 82.272C95.9315 81.8027 95.6382 81.424 95.2435 81.136C94.8595 80.8373 94.3795 80.688 93.8035 80.688C93.2382 80.688 92.7582 80.8373 92.3635 81.136C91.9688 81.424 91.6702 81.8027 91.4675 82.272C91.2755 82.7307 91.1795 83.2267 91.1795 83.76C91.1795 84.2827 91.2755 84.7787 91.4675 85.248C91.6702 85.7173 91.9688 86.1013 92.3635 86.4C92.7582 86.688 93.2382 86.832 93.8035 86.832ZM103.261 91.136V79.52H104.781V80.864H104.877C105.005 80.6613 105.175 80.4427 105.389 80.208C105.613 79.9733 105.906 79.776 106.269 79.616C106.631 79.4453 107.079 79.36 107.613 79.36C108.253 79.36 108.813 79.488 109.293 79.744C109.773 79.9893 110.173 80.3253 110.493 80.752C110.813 81.168 111.053 81.6373 111.213 82.16C111.373 82.6827 111.453 83.216 111.453 83.76C111.453 84.304 111.373 84.8373 111.213 85.36C111.053 85.8827 110.813 86.3573 110.493 86.784C110.173 87.2 109.773 87.536 109.293 87.792C108.813 88.0373 108.253 88.16 107.613 88.16C107.079 88.16 106.631 88.0747 106.269 87.904C105.906 87.7333 105.613 87.5307 105.389 87.296C105.175 87.0613 105.005 86.848 104.877 86.656H104.781V91.136H103.261ZM104.813 83.76C104.813 84.272 104.903 84.768 105.085 85.248C105.277 85.7173 105.559 86.1067 105.933 86.416C106.317 86.7147 106.791 86.864 107.357 86.864C107.933 86.864 108.407 86.7147 108.781 86.416C109.165 86.1067 109.447 85.7173 109.629 85.248C109.821 84.768 109.917 84.272 109.917 83.76C109.917 83.2373 109.821 82.7413 109.629 82.272C109.447 81.8027 109.165 81.4187 108.781 81.12C108.407 80.8107 107.933 80.656 107.357 80.656C106.791 80.656 106.317 80.8107 105.933 81.12C105.559 81.4187 105.277 81.8027 105.085 82.272C104.903 82.7413 104.813 83.2373 104.813 83.76ZM116.82 79.36C117.353 79.36 117.801 79.4453 118.164 79.616C118.527 79.7867 118.82 79.9893 119.044 80.224C119.268 80.448 119.439 80.6613 119.556 80.864H119.652V79.52H121.172V88H119.652V86.656H119.556C119.439 86.8587 119.268 87.0773 119.044 87.312C118.82 87.5467 118.527 87.7493 118.164 87.92C117.801 88.08 117.353 88.16 116.82 88.16C116.18 88.16 115.62 88.0373 115.14 87.792C114.66 87.536 114.26 87.2 113.94 86.784C113.62 86.3573 113.38 85.8827 113.22 85.36C113.06 84.8373 112.98 84.304 112.98 83.76C112.98 83.216 113.06 82.6827 113.22 82.16C113.38 81.6373 113.62 81.168 113.94 80.752C114.26 80.3253 114.66 79.9893 115.14 79.744C115.62 79.488 116.18 79.36 116.82 79.36ZM117.076 80.656C116.511 80.656 116.036 80.8107 115.652 81.12C115.268 81.4187 114.98 81.8027 114.788 82.272C114.607 82.7413 114.516 83.2373 114.516 83.76C114.516 84.272 114.607 84.768 114.788 85.248C114.98 85.7173 115.268 86.1067 115.652 86.416C116.036 86.7147 116.511 86.864 117.076 86.864C117.641 86.864 118.111 86.7147 118.484 86.416C118.868 86.1067 119.151 85.7173 119.332 85.248C119.524 84.768 119.62 84.272 119.62 83.76C119.62 83.2373 119.524 82.7413 119.332 82.272C119.151 81.8027 118.868 81.4187 118.484 81.12C118.111 80.8107 117.641 80.656 117.076 80.656ZM123.086 88V79.52H124.606V80.576H124.67C124.851 80.256 125.118 79.9733 125.47 79.728C125.822 79.4827 126.318 79.36 126.958 79.36C127.139 79.36 127.304 79.3707 127.454 79.392C127.603 79.4027 127.678 79.408 127.678 79.408V80.864C127.678 80.864 127.592 80.8587 127.422 80.848C127.262 80.8267 127.091 80.816 126.91 80.816C126.174 80.816 125.603 81.0293 125.198 81.456C124.803 81.872 124.606 82.5547 124.606 83.504V88H123.086ZM132.071 79.36C132.604 79.36 133.052 79.4453 133.415 79.616C133.777 79.7867 134.071 79.9893 134.295 80.224C134.519 80.448 134.689 80.6613 134.807 80.864H134.903V79.52H136.423V88H134.903V86.656H134.807C134.689 86.8587 134.519 87.0773 134.295 87.312C134.071 87.5467 133.777 87.7493 133.415 87.92C133.052 88.08 132.604 88.16 132.071 88.16C131.431 88.16 130.871 88.0373 130.391 87.792C129.911 87.536 129.511 87.2 129.191 86.784C128.871 86.3573 128.631 85.8827 128.471 85.36C128.311 84.8373 128.231 84.304 128.231 83.76C128.231 83.216 128.311 82.6827 128.471 82.16C128.631 81.6373 128.871 81.168 129.191 80.752C129.511 80.3253 129.911 79.9893 130.391 79.744C130.871 79.488 131.431 79.36 132.071 79.36ZM132.327 80.656C131.761 80.656 131.287 80.8107 130.903 81.12C130.519 81.4187 130.231 81.8027 130.039 82.272C129.857 82.7413 129.767 83.2373 129.767 83.76C129.767 84.272 129.857 84.768 130.039 85.248C130.231 85.7173 130.519 86.1067 130.903 86.416C131.287 86.7147 131.761 86.864 132.327 86.864C132.892 86.864 133.361 86.7147 133.735 86.416C134.119 86.1067 134.401 85.7173 134.583 85.248C134.775 84.768 134.871 84.272 134.871 83.76C134.871 83.2373 134.775 82.7413 134.583 82.272C134.401 81.8027 134.119 81.4187 133.735 81.12C133.361 80.8107 132.892 80.656 132.327 80.656ZM144.376 88L141.144 79.52H142.728L145.208 86.144L147.64 79.52H149.24L145.992 88H144.376ZM154.306 88.16C153.399 88.16 152.637 87.952 152.018 87.536C151.399 87.1093 150.93 86.56 150.61 85.888C150.29 85.216 150.13 84.5067 150.13 83.76C150.13 83.0027 150.29 82.2933 150.61 81.632C150.93 80.96 151.399 80.416 152.018 80C152.637 79.5733 153.399 79.36 154.306 79.36C155.213 79.36 155.975 79.5733 156.594 80C157.213 80.416 157.682 80.96 158.002 81.632C158.322 82.2933 158.482 83.0027 158.482 83.76C158.482 84.5067 158.322 85.216 158.002 85.888C157.682 86.56 157.213 87.1093 156.594 87.536C155.975 87.952 155.213 88.16 154.306 88.16ZM154.306 86.832C154.882 86.832 155.362 86.688 155.746 86.4C156.141 86.1013 156.434 85.7173 156.626 85.248C156.829 84.7787 156.93 84.2827 156.93 83.76C156.93 83.2267 156.829 82.7307 156.626 82.272C156.434 81.8027 156.141 81.424 155.746 81.136C155.362 80.8373 154.882 80.688 154.306 80.688C153.741 80.688 153.261 80.8373 152.866 81.136C152.471 81.424 152.173 81.8027 151.97 82.272C151.778 82.7307 151.682 83.2267 151.682 83.76C151.682 84.2827 151.778 84.7787 151.97 85.248C152.173 85.7173 152.471 86.1013 152.866 86.4C153.261 86.688 153.741 86.832 154.306 86.832ZM164.174 88.16C163.48 88.16 162.872 88.0373 162.35 87.792C161.827 87.536 161.39 87.2 161.038 86.784C160.696 86.3573 160.435 85.8827 160.254 85.36C160.083 84.8373 159.998 84.304 159.998 83.76C159.998 83.216 160.083 82.688 160.254 82.176C160.424 81.6533 160.68 81.1787 161.022 80.752C161.374 80.3253 161.811 79.9893 162.334 79.744C162.856 79.488 163.47 79.36 164.174 79.36C164.856 79.36 165.422 79.4613 165.87 79.664C166.318 79.8667 166.675 80.1227 166.942 80.432C167.219 80.7307 167.422 81.0347 167.55 81.344C167.688 81.6427 167.779 81.8933 167.822 82.096C167.864 82.2987 167.886 82.4 167.886 82.4H166.414C166.414 82.4 166.387 82.3147 166.334 82.144C166.28 81.9627 166.179 81.76 166.03 81.536C165.88 81.312 165.656 81.1147 165.358 80.944C165.059 80.7627 164.664 80.672 164.174 80.672C163.587 80.672 163.091 80.8213 162.686 81.12C162.291 81.408 161.992 81.7867 161.79 82.256C161.598 82.7253 161.502 83.2267 161.502 83.76C161.502 84.2933 161.598 84.7947 161.79 85.264C161.992 85.7333 162.291 86.1173 162.686 86.416C163.091 86.704 163.587 86.848 164.174 86.848C164.664 86.848 165.059 86.7627 165.358 86.592C165.656 86.4107 165.88 86.208 166.03 85.984C166.179 85.76 166.28 85.5627 166.334 85.392C166.387 85.2107 166.414 85.12 166.414 85.12H167.886C167.886 85.12 167.864 85.2213 167.822 85.424C167.779 85.6267 167.688 85.8827 167.55 86.192C167.422 86.4907 167.219 86.7947 166.942 87.104C166.675 87.4027 166.318 87.6533 165.87 87.856C165.422 88.0587 164.856 88.16 164.174 88.16ZM170.946 78.32L172.882 75.648H174.178L176.114 78.32H174.738L173.522 76.608L172.322 78.32H170.946ZM173.586 88.16C172.893 88.16 172.29 88.0373 171.778 87.792C171.277 87.536 170.861 87.1947 170.53 86.768C170.21 86.3413 169.97 85.872 169.81 85.36C169.65 84.8373 169.57 84.304 169.57 83.76C169.57 83.2267 169.645 82.6987 169.794 82.176C169.954 81.6533 170.194 81.1787 170.514 80.752C170.845 80.3253 171.255 79.9893 171.746 79.744C172.247 79.488 172.839 79.36 173.522 79.36C174.247 79.36 174.887 79.5253 175.442 79.856C175.997 80.1867 176.434 80.6773 176.754 81.328C177.074 81.9787 177.234 82.7947 177.234 83.776V84.224H171.106C171.138 84.704 171.25 85.1467 171.442 85.552C171.645 85.9467 171.927 86.2667 172.29 86.512C172.653 86.7467 173.085 86.864 173.586 86.864C174.023 86.864 174.375 86.7947 174.642 86.656C174.919 86.5067 175.138 86.336 175.298 86.144C175.458 85.952 175.565 85.7867 175.618 85.648C175.682 85.4987 175.714 85.424 175.714 85.424H177.138C177.138 85.424 177.111 85.52 177.058 85.712C177.005 85.8933 176.909 86.1173 176.77 86.384C176.631 86.6507 176.429 86.9227 176.162 87.2C175.895 87.4667 175.554 87.696 175.138 87.888C174.722 88.0693 174.205 88.16 173.586 88.16ZM171.122 83.04H175.746C175.725 82.4853 175.607 82.0373 175.394 81.696C175.181 81.344 174.909 81.0827 174.578 80.912C174.247 80.7413 173.895 80.656 173.522 80.656C172.85 80.656 172.301 80.8747 171.874 81.312C171.447 81.7387 171.197 82.3147 171.122 83.04ZM185.551 88.16C184.901 88.16 184.362 88.0693 183.935 87.888C183.519 87.7067 183.189 87.4827 182.943 87.216C182.698 86.9387 182.517 86.6667 182.399 86.4C182.282 86.1227 182.207 85.8933 182.175 85.712C182.143 85.5307 182.127 85.44 182.127 85.44H183.663C183.663 85.44 183.679 85.5147 183.711 85.664C183.754 85.8027 183.834 85.968 183.951 86.16C184.079 86.3413 184.271 86.5067 184.527 86.656C184.794 86.7947 185.146 86.864 185.583 86.864C186.085 86.864 186.474 86.7467 186.751 86.512C187.029 86.2667 187.167 85.968 187.167 85.616C187.167 85.3067 187.055 85.0613 186.831 84.88C186.618 84.6987 186.309 84.56 185.903 84.464L184.751 84.192C184.325 84.0853 183.925 83.9413 183.551 83.76C183.178 83.5787 182.874 83.3333 182.639 83.024C182.415 82.704 182.303 82.3093 182.303 81.84C182.303 81.1147 182.575 80.5227 183.119 80.064C183.663 79.5947 184.373 79.36 185.247 79.36C185.834 79.36 186.319 79.4453 186.703 79.616C187.087 79.776 187.391 79.9787 187.615 80.224C187.85 80.4693 188.021 80.7147 188.127 80.96C188.245 81.2053 188.319 81.4133 188.351 81.584C188.383 81.744 188.399 81.824 188.399 81.824H186.927C186.927 81.824 186.911 81.7653 186.879 81.648C186.847 81.52 186.773 81.3813 186.655 81.232C186.549 81.072 186.383 80.9333 186.159 80.816C185.935 80.688 185.637 80.624 185.263 80.624C184.751 80.624 184.378 80.7413 184.143 80.976C183.909 81.2107 183.791 81.4667 183.791 81.744C183.791 82.0107 183.898 82.2293 184.111 82.4C184.335 82.56 184.623 82.6827 184.975 82.768L186.143 83.04C186.869 83.2107 187.466 83.4933 187.935 83.888C188.415 84.272 188.655 84.8267 188.655 85.552C188.655 86.0213 188.533 86.4587 188.287 86.864C188.042 87.2587 187.69 87.5733 187.231 87.808C186.773 88.0427 186.213 88.16 185.551 88.16ZM193.952 88.16C193.259 88.16 192.656 88.0373 192.144 87.792C191.643 87.536 191.227 87.1947 190.896 86.768C190.576 86.3413 190.336 85.872 190.176 85.36C190.016 84.8373 189.936 84.304 189.936 83.76C189.936 83.2267 190.011 82.6987 190.16 82.176C190.32 81.6533 190.56 81.1787 190.88 80.752C191.211 80.3253 191.622 79.9893 192.112 79.744C192.614 79.488 193.206 79.36 193.888 79.36C194.614 79.36 195.254 79.5253 195.808 79.856C196.363 80.1867 196.8 80.6773 197.12 81.328C197.44 81.9787 197.6 82.7947 197.6 83.776V84.224H191.472C191.504 84.704 191.616 85.1467 191.808 85.552C192.011 85.9467 192.294 86.2667 192.656 86.512C193.019 86.7467 193.451 86.864 193.952 86.864C194.39 86.864 194.742 86.7947 195.008 86.656C195.286 86.5067 195.504 86.336 195.664 86.144C195.824 85.952 195.931 85.7867 195.984 85.648C196.048 85.4987 196.08 85.424 196.08 85.424H197.504C197.504 85.424 197.478 85.52 197.424 85.712C197.371 85.8933 197.275 86.1173 197.136 86.384C196.998 86.6507 196.795 86.9227 196.528 87.2C196.262 87.4667 195.92 87.696 195.504 87.888C195.088 88.0693 194.571 88.16 193.952 88.16ZM191.488 83.04H196.112C196.091 82.4853 195.974 82.0373 195.76 81.696C195.547 81.344 195.275 81.0827 194.944 80.912C194.614 80.7413 194.262 80.656 193.888 80.656C193.216 80.656 192.667 80.8747 192.24 81.312C191.814 81.7387 191.563 82.3147 191.488 83.04ZM206.322 88.16C205.447 88.16 204.786 87.936 204.338 87.488C203.901 87.04 203.682 86.4107 203.682 85.6V80.768H202.162V79.52H203.682V77.392H205.202V79.52H207.266V80.768H205.202V85.6C205.202 86.0267 205.319 86.3413 205.554 86.544C205.789 86.736 206.13 86.832 206.578 86.832C206.813 86.832 207.037 86.816 207.25 86.784C207.463 86.752 207.57 86.736 207.57 86.736V88.032C207.57 88.032 207.447 88.0533 207.202 88.096C206.957 88.1387 206.663 88.16 206.322 88.16ZM209.246 88V79.52H210.766V80.576H210.83C211.011 80.256 211.278 79.9733 211.63 79.728C211.982 79.4827 212.478 79.36 213.118 79.36C213.299 79.36 213.464 79.3707 213.614 79.392C213.763 79.4027 213.838 79.408 213.838 79.408V80.864C213.838 80.864 213.752 80.8587 213.582 80.848C213.422 80.8267 213.251 80.816 213.07 80.816C212.334 80.816 211.763 81.0293 211.358 81.456C210.963 81.872 210.766 82.5547 210.766 83.504V88H209.246ZM218.231 79.36C218.764 79.36 219.212 79.4453 219.575 79.616C219.937 79.7867 220.231 79.9893 220.455 80.224C220.679 80.448 220.849 80.6613 220.967 80.864H221.063V79.52H222.583V88H221.063V86.656H220.967C220.849 86.8587 220.679 87.0773 220.455 87.312C220.231 87.5467 219.937 87.7493 219.575 87.92C219.212 88.08 218.764 88.16 218.231 88.16C217.591 88.16 217.031 88.0373 216.551 87.792C216.071 87.536 215.671 87.2 215.351 86.784C215.031 86.3573 214.791 85.8827 214.631 85.36C214.471 84.8373 214.391 84.304 214.391 83.76C214.391 83.216 214.471 82.6827 214.631 82.16C214.791 81.6373 215.031 81.168 215.351 80.752C215.671 80.3253 216.071 79.9893 216.551 79.744C217.031 79.488 217.591 79.36 218.231 79.36ZM218.487 80.656C217.921 80.656 217.447 80.8107 217.063 81.12C216.679 81.4187 216.391 81.8027 216.199 82.272C216.017 82.7413 215.927 83.2373 215.927 83.76C215.927 84.272 216.017 84.768 216.199 85.248C216.391 85.7173 216.679 86.1067 217.063 86.416C217.447 86.7147 217.921 86.864 218.487 86.864C219.052 86.864 219.521 86.7147 219.895 86.416C220.279 86.1067 220.561 85.7173 220.743 85.248C220.935 84.768 221.031 84.272 221.031 83.76C221.031 83.2373 220.935 82.7413 220.743 82.272C220.561 81.8027 220.279 81.4187 219.895 81.12C219.521 80.8107 219.052 80.656 218.487 80.656ZM224.496 88V79.52H226.016V80.752H226.112C226.187 80.624 226.31 80.448 226.48 80.224C226.662 80 226.918 79.8027 227.248 79.632C227.579 79.4507 227.995 79.36 228.496 79.36C229.115 79.36 229.643 79.504 230.08 79.792C230.518 80.0693 230.848 80.448 231.072 80.928C231.307 81.408 231.424 81.9467 231.424 82.544V88H229.904V82.64C229.904 82.0747 229.744 81.6053 229.424 81.232C229.115 80.8587 228.662 80.672 228.064 80.672C227.584 80.672 227.195 80.7947 226.896 81.04C226.598 81.2747 226.374 81.5893 226.224 81.984C226.086 82.368 226.016 82.7787 226.016 83.216V88H224.496ZM236.452 88.16C235.801 88.16 235.263 88.0693 234.836 87.888C234.42 87.7067 234.089 87.4827 233.844 87.216C233.599 86.9387 233.417 86.6667 233.3 86.4C233.183 86.1227 233.108 85.8933 233.076 85.712C233.044 85.5307 233.028 85.44 233.028 85.44H234.564C234.564 85.44 234.58 85.5147 234.612 85.664C234.655 85.8027 234.735 85.968 234.852 86.16C234.98 86.3413 235.172 86.5067 235.428 86.656C235.695 86.7947 236.047 86.864 236.484 86.864C236.985 86.864 237.375 86.7467 237.652 86.512C237.929 86.2667 238.068 85.968 238.068 85.616C238.068 85.3067 237.956 85.0613 237.732 84.88C237.519 84.6987 237.209 84.56 236.804 84.464L235.652 84.192C235.225 84.0853 234.825 83.9413 234.452 83.76C234.079 83.5787 233.775 83.3333 233.54 83.024C233.316 82.704 233.204 82.3093 233.204 81.84C233.204 81.1147 233.476 80.5227 234.02 80.064C234.564 79.5947 235.273 79.36 236.148 79.36C236.735 79.36 237.22 79.4453 237.604 79.616C237.988 79.776 238.292 79.9787 238.516 80.224C238.751 80.4693 238.921 80.7147 239.028 80.96C239.145 81.2053 239.22 81.4133 239.252 81.584C239.284 81.744 239.3 81.824 239.3 81.824H237.828C237.828 81.824 237.812 81.7653 237.78 81.648C237.748 81.52 237.673 81.3813 237.556 81.232C237.449 81.072 237.284 80.9333 237.06 80.816C236.836 80.688 236.537 80.624 236.164 80.624C235.652 80.624 235.279 80.7413 235.044 80.976C234.809 81.2107 234.692 81.4667 234.692 81.744C234.692 82.0107 234.799 82.2293 235.012 82.4C235.236 82.56 235.524 82.6827 235.876 82.768L237.044 83.04C237.769 83.2107 238.367 83.4933 238.836 83.888C239.316 84.272 239.556 84.8267 239.556 85.552C239.556 86.0213 239.433 86.4587 239.188 86.864C238.943 87.2587 238.591 87.5733 238.132 87.808C237.673 88.0427 237.113 88.16 236.452 88.16ZM242.145 88V80.768H240.753V79.52H242.145V78.48C242.145 78.032 242.225 77.5947 242.385 77.168C242.545 76.7307 242.812 76.3733 243.185 76.096C243.558 75.8187 244.065 75.68 244.705 75.68C245.014 75.68 245.26 75.7067 245.441 75.76C245.633 75.8027 245.729 75.824 245.729 75.824V77.024C245.729 77.024 245.644 77.008 245.473 76.976C245.313 76.9333 245.126 76.912 244.913 76.912C244.422 76.912 244.092 77.0613 243.921 77.36C243.75 77.6587 243.665 78.032 243.665 78.48V79.52H245.633V80.768H243.665V88H242.145ZM250.537 88.16C249.63 88.16 248.867 87.952 248.249 87.536C247.63 87.1093 247.161 86.56 246.841 85.888C246.521 85.216 246.361 84.5067 246.361 83.76C246.361 83.0027 246.521 82.2933 246.841 81.632C247.161 80.96 247.63 80.416 248.249 80C248.867 79.5733 249.63 79.36 250.537 79.36C251.443 79.36 252.206 79.5733 252.825 80C253.443 80.416 253.913 80.96 254.233 81.632C254.553 82.2933 254.713 83.0027 254.713 83.76C254.713 84.5067 254.553 85.216 254.233 85.888C253.913 86.56 253.443 87.1093 252.825 87.536C252.206 87.952 251.443 88.16 250.537 88.16ZM250.537 86.832C251.113 86.832 251.593 86.688 251.977 86.4C252.371 86.1013 252.665 85.7173 252.857 85.248C253.059 84.7787 253.161 84.2827 253.161 83.76C253.161 83.2267 253.059 82.7307 252.857 82.272C252.665 81.8027 252.371 81.424 251.977 81.136C251.593 80.8373 251.113 80.688 250.537 80.688C249.971 80.688 249.491 80.8373 249.097 81.136C248.702 81.424 248.403 81.8027 248.201 82.272C248.009 82.7307 247.913 83.2267 247.913 83.76C247.913 84.2827 248.009 84.7787 248.201 85.248C248.403 85.7173 248.702 86.1013 249.097 86.4C249.491 86.688 249.971 86.832 250.537 86.832ZM256.466 88V79.52H257.986V80.576H258.05C258.232 80.256 258.498 79.9733 258.85 79.728C259.202 79.4827 259.698 79.36 260.338 79.36C260.52 79.36 260.685 79.3707 260.834 79.392C260.984 79.4027 261.058 79.408 261.058 79.408V80.864C261.058 80.864 260.973 80.8587 260.802 80.848C260.642 80.8267 260.472 80.816 260.29 80.816C259.554 80.816 258.984 81.0293 258.578 81.456C258.184 81.872 257.986 82.5547 257.986 83.504V88H256.466ZM262.412 88V79.52H263.932V80.752H263.996C264.081 80.592 264.215 80.4053 264.396 80.192C264.577 79.968 264.823 79.776 265.132 79.616C265.452 79.4453 265.852 79.36 266.332 79.36C266.961 79.36 267.489 79.5147 267.916 79.824C268.353 80.1227 268.679 80.528 268.892 81.04H268.908C269.143 80.5707 269.473 80.176 269.9 79.856C270.337 79.5253 270.903 79.36 271.596 79.36C272.513 79.36 273.217 79.6747 273.708 80.304C274.209 80.9227 274.46 81.7227 274.46 82.704V88H272.94V82.784C272.94 82.1547 272.791 81.648 272.492 81.264C272.193 80.8693 271.761 80.672 271.196 80.672C270.705 80.672 270.311 80.8053 270.012 81.072C269.724 81.3387 269.516 81.6693 269.388 82.064C269.26 82.4587 269.196 82.8533 269.196 83.248V88H267.676V82.784C267.676 82.1547 267.527 81.648 267.228 81.264C266.94 80.8693 266.508 80.672 265.932 80.672C265.441 80.672 265.047 80.8053 264.748 81.072C264.46 81.3387 264.252 81.6747 264.124 82.08C263.996 82.4747 263.932 82.864 263.932 83.248V88H262.412ZM280.053 79.36C280.586 79.36 281.034 79.4453 281.397 79.616C281.76 79.7867 282.053 79.9893 282.277 80.224C282.501 80.448 282.672 80.6613 282.789 80.864H282.885V79.52H284.405V88H282.885V86.656H282.789C282.672 86.8587 282.501 87.0773 282.277 87.312C282.053 87.5467 281.76 87.7493 281.397 87.92C281.034 88.08 280.586 88.16 280.053 88.16C279.413 88.16 278.853 88.0373 278.373 87.792C277.893 87.536 277.493 87.2 277.173 86.784C276.853 86.3573 276.613 85.8827 276.453 85.36C276.293 84.8373 276.213 84.304 276.213 83.76C276.213 83.216 276.293 82.6827 276.453 82.16C276.613 81.6373 276.853 81.168 277.173 80.752C277.493 80.3253 277.893 79.9893 278.373 79.744C278.853 79.488 279.413 79.36 280.053 79.36ZM280.309 80.656C279.744 80.656 279.269 80.8107 278.885 81.12C278.501 81.4187 278.213 81.8027 278.021 82.272C277.84 82.7413 277.749 83.2373 277.749 83.76C277.749 84.272 277.84 84.768 278.021 85.248C278.213 85.7173 278.501 86.1067 278.885 86.416C279.269 86.7147 279.744 86.864 280.309 86.864C280.874 86.864 281.344 86.7147 281.717 86.416C282.101 86.1067 282.384 85.7173 282.565 85.248C282.757 84.768 282.853 84.272 282.853 83.76C282.853 83.2373 282.757 82.7413 282.565 82.272C282.384 81.8027 282.101 81.4187 281.717 81.12C281.344 80.8107 280.874 80.656 280.309 80.656ZM286.319 88V79.52H287.839V80.576H287.903C288.084 80.256 288.351 79.9733 288.703 79.728C289.055 79.4827 289.551 79.36 290.191 79.36C290.372 79.36 290.537 79.3707 290.687 79.392C290.836 79.4027 290.911 79.408 290.911 79.408V80.864C290.911 80.864 290.825 80.8587 290.655 80.848C290.495 80.8267 290.324 80.816 290.143 80.816C289.407 80.816 288.836 81.0293 288.431 81.456C288.036 81.872 287.839 82.5547 287.839 83.504V88H286.319ZM295.632 88V79.52H297.152V80.752H297.248C297.323 80.624 297.445 80.448 297.616 80.224C297.797 80 298.053 79.8027 298.384 79.632C298.715 79.4507 299.131 79.36 299.632 79.36C300.251 79.36 300.779 79.504 301.216 79.792C301.653 80.0693 301.984 80.448 302.208 80.928C302.443 81.408 302.56 81.9467 302.56 82.544V88H301.04V82.64C301.04 82.0747 300.88 81.6053 300.56 81.232C300.251 80.8587 299.797 80.672 299.2 80.672C298.72 80.672 298.331 80.7947 298.032 81.04C297.733 81.2747 297.509 81.5893 297.36 81.984C297.221 82.368 297.152 82.7787 297.152 83.216V88H295.632ZM308.164 79.36C308.697 79.36 309.145 79.4453 309.508 79.616C309.87 79.7867 310.164 79.9893 310.388 80.224C310.612 80.448 310.782 80.6613 310.9 80.864H310.996V79.52H312.516V88H310.996V86.656H310.9C310.782 86.8587 310.612 87.0773 310.388 87.312C310.164 87.5467 309.87 87.7493 309.508 87.92C309.145 88.08 308.697 88.16 308.164 88.16C307.524 88.16 306.964 88.0373 306.484 87.792C306.004 87.536 305.604 87.2 305.284 86.784C304.964 86.3573 304.724 85.8827 304.564 85.36C304.404 84.8373 304.324 84.304 304.324 83.76C304.324 83.216 304.404 82.6827 304.564 82.16C304.724 81.6373 304.964 81.168 305.284 80.752C305.604 80.3253 306.004 79.9893 306.484 79.744C306.964 79.488 307.524 79.36 308.164 79.36ZM308.42 80.656C307.854 80.656 307.38 80.8107 306.996 81.12C306.612 81.4187 306.324 81.8027 306.132 82.272C305.95 82.7413 305.86 83.2373 305.86 83.76C305.86 84.272 305.95 84.768 306.132 85.248C306.324 85.7173 306.612 86.1067 306.996 86.416C307.38 86.7147 307.854 86.864 308.42 86.864C308.985 86.864 309.454 86.7147 309.828 86.416C310.212 86.1067 310.494 85.7173 310.676 85.248C310.868 84.768 310.964 84.272 310.964 83.76C310.964 83.2373 310.868 82.7413 310.676 82.272C310.494 81.8027 310.212 81.4187 309.828 81.12C309.454 80.8107 308.985 80.656 308.42 80.656ZM320.941 91.12V86.656H320.845C320.728 86.8587 320.557 87.0773 320.333 87.312C320.109 87.5467 319.816 87.7493 319.453 87.92C319.091 88.08 318.643 88.16 318.109 88.16C317.469 88.16 316.909 88.0373 316.429 87.792C315.949 87.536 315.549 87.2 315.229 86.784C314.909 86.3573 314.669 85.8827 314.509 85.36C314.349 84.8373 314.269 84.304 314.269 83.76C314.269 83.216 314.349 82.6827 314.509 82.16C314.669 81.6373 314.909 81.168 315.229 80.752C315.549 80.3253 315.949 79.9893 316.429 79.744C316.909 79.488 317.469 79.36 318.109 79.36C318.643 79.36 319.091 79.4453 319.453 79.616C319.816 79.7867 320.109 79.9893 320.333 80.224C320.557 80.448 320.728 80.6613 320.845 80.864H320.941V79.52H322.461V91.12H320.941ZM318.365 86.864C318.931 86.864 319.4 86.7147 319.773 86.416C320.157 86.1067 320.44 85.7173 320.621 85.248C320.813 84.768 320.909 84.272 320.909 83.76C320.909 83.2373 320.813 82.7413 320.621 82.272C320.44 81.8027 320.157 81.4187 319.773 81.12C319.4 80.8107 318.931 80.656 318.365 80.656C317.8 80.656 317.325 80.8107 316.941 81.12C316.557 81.4187 316.269 81.8027 316.077 82.272C315.896 82.7413 315.805 83.2373 315.805 83.76C315.805 84.272 315.896 84.768 316.077 85.248C316.269 85.7173 316.557 86.1067 316.941 86.416C317.325 86.7147 317.8 86.864 318.365 86.864ZM327.315 88.16C326.472 88.16 325.8 87.8987 325.299 87.376C324.798 86.8533 324.547 86.128 324.547 85.2V79.52H326.067V85.12C326.067 85.6747 326.216 86.1013 326.515 86.4C326.824 86.6987 327.23 86.848 327.731 86.848C328.243 86.848 328.654 86.7147 328.963 86.448C329.272 86.1813 329.496 85.84 329.635 85.424C329.774 85.008 329.843 84.5813 329.843 84.144V79.52H331.363V88H329.843V86.784H329.747C329.683 86.912 329.56 87.088 329.379 87.312C329.198 87.5253 328.942 87.7227 328.611 87.904C328.28 88.0747 327.848 88.16 327.315 88.16ZM334.281 77.904C333.993 77.904 333.753 77.808 333.561 77.616C333.38 77.424 333.289 77.1947 333.289 76.928C333.289 76.6507 333.38 76.416 333.561 76.224C333.753 76.032 333.993 75.936 334.281 75.936C334.559 75.936 334.793 76.032 334.985 76.224C335.177 76.416 335.273 76.6507 335.273 76.928C335.273 77.1947 335.177 77.424 334.985 77.616C334.793 77.808 334.559 77.904 334.281 77.904ZM333.529 88V79.52H335.049V88H333.529ZM337.348 88L337.364 75.84H338.868V88H337.348ZM344.962 88.16C344.056 88.16 343.293 87.952 342.674 87.536C342.056 87.1093 341.586 86.56 341.266 85.888C340.946 85.216 340.786 84.5067 340.786 83.76C340.786 83.0027 340.946 82.2933 341.266 81.632C341.586 80.96 342.056 80.416 342.674 80C343.293 79.5733 344.056 79.36 344.962 79.36C345.869 79.36 346.632 79.5733 347.25 80C347.869 80.416 348.338 80.96 348.658 81.632C348.978 82.2933 349.138 83.0027 349.138 83.76C349.138 84.5067 348.978 85.216 348.658 85.888C348.338 86.56 347.869 87.1093 347.25 87.536C346.632 87.952 345.869 88.16 344.962 88.16ZM344.962 86.832C345.538 86.832 346.018 86.688 346.402 86.4C346.797 86.1013 347.09 85.7173 347.282 85.248C347.485 84.7787 347.586 84.2827 347.586 83.76C347.586 83.2267 347.485 82.7307 347.282 82.272C347.09 81.8027 346.797 81.424 346.402 81.136C346.018 80.8373 345.538 80.688 344.962 80.688C344.397 80.688 343.917 80.8373 343.522 81.136C343.128 81.424 342.829 81.8027 342.626 82.272C342.434 82.7307 342.338 83.2267 342.338 83.76C342.338 84.2827 342.434 84.7787 342.626 85.248C342.829 85.7173 343.128 86.1013 343.522 86.4C343.917 86.688 344.397 86.832 344.962 86.832ZM360.771 91.12V86.656H360.675C360.558 86.8587 360.387 87.0773 360.163 87.312C359.939 87.5467 359.646 87.7493 359.283 87.92C358.921 88.08 358.473 88.16 357.939 88.16C357.299 88.16 356.739 88.0373 356.259 87.792C355.779 87.536 355.379 87.2 355.059 86.784C354.739 86.3573 354.499 85.8827 354.339 85.36C354.179 84.8373 354.099 84.304 354.099 83.76C354.099 83.216 354.179 82.6827 354.339 82.16C354.499 81.6373 354.739 81.168 355.059 80.752C355.379 80.3253 355.779 79.9893 356.259 79.744C356.739 79.488 357.299 79.36 357.939 79.36C358.473 79.36 358.921 79.4453 359.283 79.616C359.646 79.7867 359.939 79.9893 360.163 80.224C360.387 80.448 360.558 80.6613 360.675 80.864H360.771V79.52H362.291V91.12H360.771ZM358.195 86.864C358.761 86.864 359.23 86.7147 359.603 86.416C359.987 86.1067 360.27 85.7173 360.451 85.248C360.643 84.768 360.739 84.272 360.739 83.76C360.739 83.2373 360.643 82.7413 360.451 82.272C360.27 81.8027 359.987 81.4187 359.603 81.12C359.23 80.8107 358.761 80.656 358.195 80.656C357.63 80.656 357.155 80.8107 356.771 81.12C356.387 81.4187 356.099 81.8027 355.907 82.272C355.726 82.7413 355.635 83.2373 355.635 83.76C355.635 84.272 355.726 84.768 355.907 85.248C356.099 85.7173 356.387 86.1067 356.771 86.416C357.155 86.7147 357.63 86.864 358.195 86.864ZM367.145 88.16C366.302 88.16 365.63 87.8987 365.129 87.376C364.628 86.8533 364.377 86.128 364.377 85.2V79.52H365.897V85.12C365.897 85.6747 366.046 86.1013 366.345 86.4C366.654 86.6987 367.06 86.848 367.561 86.848C368.073 86.848 368.484 86.7147 368.793 86.448C369.102 86.1813 369.326 85.84 369.465 85.424C369.604 85.008 369.673 84.5813 369.673 84.144V79.52H371.193V88H369.673V86.784H369.577C369.513 86.912 369.39 87.088 369.209 87.312C369.028 87.5253 368.772 87.7227 368.441 87.904C368.11 88.0747 367.678 88.16 367.145 88.16ZM376.975 88.16C376.282 88.16 375.679 88.0373 375.167 87.792C374.666 87.536 374.25 87.1947 373.919 86.768C373.599 86.3413 373.359 85.872 373.199 85.36C373.039 84.8373 372.959 84.304 372.959 83.76C372.959 83.2267 373.034 82.6987 373.183 82.176C373.343 81.6533 373.583 81.1787 373.903 80.752C374.234 80.3253 374.645 79.9893 375.135 79.744C375.637 79.488 376.229 79.36 376.911 79.36C377.637 79.36 378.277 79.5253 378.831 79.856C379.386 80.1867 379.823 80.6773 380.143 81.328C380.463 81.9787 380.623 82.7947 380.623 83.776V84.224H374.495C374.527 84.704 374.639 85.1467 374.831 85.552C375.034 85.9467 375.317 86.2667 375.679 86.512C376.042 86.7467 376.474 86.864 376.975 86.864C377.413 86.864 377.765 86.7947 378.031 86.656C378.309 86.5067 378.527 86.336 378.687 86.144C378.847 85.952 378.954 85.7867 379.007 85.648C379.071 85.4987 379.103 85.424 379.103 85.424H380.527C380.527 85.424 380.501 85.52 380.447 85.712C380.394 85.8933 380.298 86.1173 380.159 86.384C380.021 86.6507 379.818 86.9227 379.551 87.2C379.285 87.4667 378.943 87.696 378.527 87.888C378.111 88.0693 377.594 88.16 376.975 88.16ZM374.511 83.04H379.135C379.114 82.4853 378.997 82.0373 378.783 81.696C378.57 81.344 378.298 81.0827 377.967 80.912C377.637 80.7413 377.285 80.656 376.911 80.656C376.239 80.656 375.69 80.8747 375.263 81.312C374.837 81.7387 374.586 82.3147 374.511 83.04ZM6.136 108.16C5.22933 108.16 4.46667 107.952 3.848 107.536C3.22933 107.109 2.76 106.56 2.44 105.888C2.12 105.216 1.96 104.507 1.96 103.76C1.96 103.003 2.12 102.293 2.44 101.632C2.76 100.96 3.22933 100.416 3.848 100C4.46667 99.5733 5.22933 99.36 6.136 99.36C7.04267 99.36 7.80533 99.5733 8.424 100C9.04267 100.416 9.512 100.96 9.832 101.632C10.152 102.293 10.312 103.003 10.312 103.76C10.312 104.507 10.152 105.216 9.832 105.888C9.512 106.56 9.04267 107.109 8.424 107.536C7.80533 107.952 7.04267 108.16 6.136 108.16ZM6.136 106.832C6.712 106.832 7.192 106.688 7.576 106.4C7.97067 106.101 8.264 105.717 8.456 105.248C8.65867 104.779 8.76 104.283 8.76 103.76C8.76 103.227 8.65867 102.731 8.456 102.272C8.264 101.803 7.97067 101.424 7.576 101.136C7.192 100.837 6.712 100.688 6.136 100.688C5.57067 100.688 5.09067 100.837 4.696 101.136C4.30133 101.424 4.00267 101.803 3.8 102.272C3.608 102.731 3.512 103.227 3.512 103.76C3.512 104.283 3.608 104.779 3.8 105.248C4.00267 105.717 4.30133 106.101 4.696 106.4C5.09067 106.688 5.57067 106.832 6.136 106.832ZM16.5776 108.16C16.0443 108.16 15.5963 108.075 15.2336 107.904C14.871 107.733 14.5776 107.531 14.3536 107.296C14.1403 107.061 13.9696 106.848 13.8416 106.656H13.7456V108H12.2256V95.84H13.7456V100.864H13.8416C13.9696 100.661 14.1403 100.443 14.3536 100.208C14.5776 99.9733 14.871 99.776 15.2336 99.616C15.5963 99.4453 16.0443 99.36 16.5776 99.36C17.2176 99.36 17.7776 99.488 18.2576 99.744C18.7376 99.9893 19.1376 100.325 19.4576 100.752C19.7776 101.168 20.0176 101.637 20.1776 102.16C20.3376 102.683 20.4176 103.216 20.4176 103.76C20.4176 104.304 20.3376 104.837 20.1776 105.36C20.0176 105.883 19.7776 106.357 19.4576 106.784C19.1376 107.2 18.7376 107.536 18.2576 107.792C17.7776 108.037 17.2176 108.16 16.5776 108.16ZM16.3216 106.864C16.8976 106.864 17.3723 106.715 17.7456 106.416C18.1296 106.107 18.4123 105.717 18.5936 105.248C18.7856 104.768 18.8816 104.272 18.8816 103.76C18.8816 103.237 18.7856 102.741 18.5936 102.272C18.4123 101.803 18.1296 101.419 17.7456 101.12C17.3723 100.811 16.8976 100.656 16.3216 100.656C15.7563 100.656 15.2816 100.811 14.8976 101.12C14.5243 101.419 14.2416 101.803 14.0496 102.272C13.8683 102.741 13.7776 103.237 13.7776 103.76C13.7776 104.272 13.8683 104.768 14.0496 105.248C14.2416 105.717 14.5243 106.107 14.8976 106.416C15.2816 106.715 15.7563 106.864 16.3216 106.864ZM23.0226 97.904C22.7346 97.904 22.4946 97.808 22.3026 97.616C22.1213 97.424 22.0306 97.1947 22.0306 96.928C22.0306 96.6507 22.1213 96.416 22.3026 96.224C22.4946 96.032 22.7346 95.936 23.0226 95.936C23.3 95.936 23.5346 96.032 23.7266 96.224C23.9186 96.416 24.0146 96.6507 24.0146 96.928C24.0146 97.1947 23.9186 97.424 23.7266 97.616C23.5346 97.808 23.3 97.904 23.0226 97.904ZM21.0706 111.04C20.772 111.04 20.5266 111.024 20.3346 110.992C20.132 110.96 20.0306 110.944 20.0306 110.944V109.6C20.0306 109.6 20.1 109.611 20.2386 109.632C20.3773 109.653 20.548 109.664 20.7506 109.664C21.316 109.664 21.7106 109.536 21.9346 109.28C22.1586 109.035 22.2706 108.645 22.2706 108.112V99.52H23.7906V108.112C23.7906 108.453 23.748 108.795 23.6626 109.136C23.588 109.477 23.4493 109.792 23.2466 110.08C23.044 110.368 22.7666 110.597 22.4146 110.768C22.0626 110.949 21.6146 111.04 21.0706 111.04ZM29.4848 108.16C28.7914 108.16 28.1888 108.037 27.6768 107.792C27.1754 107.536 26.7594 107.195 26.4288 106.768C26.1088 106.341 25.8688 105.872 25.7088 105.36C25.5488 104.837 25.4688 104.304 25.4688 103.76C25.4688 103.227 25.5434 102.699 25.6928 102.176C25.8528 101.653 26.0928 101.179 26.4128 100.752C26.7434 100.325 27.1541 99.9893 27.6448 99.744C28.1461 99.488 28.7381 99.36 29.4208 99.36C30.1461 99.36 30.7861 99.5253 31.3408 99.856C31.8954 100.187 32.3328 100.677 32.6528 101.328C32.9728 101.979 33.1328 102.795 33.1328 103.776V104.224H27.0048C27.0368 104.704 27.1488 105.147 27.3408 105.552C27.5434 105.947 27.8261 106.267 28.1888 106.512C28.5514 106.747 28.9834 106.864 29.4848 106.864C29.9221 106.864 30.2741 106.795 30.5408 106.656C30.8181 106.507 31.0368 106.336 31.1968 106.144C31.3568 105.952 31.4634 105.787 31.5168 105.648C31.5808 105.499 31.6128 105.424 31.6128 105.424H33.0368C33.0368 105.424 33.0101 105.52 32.9568 105.712C32.9034 105.893 32.8074 106.117 32.6688 106.384C32.5301 106.651 32.3274 106.923 32.0608 107.2C31.7941 107.467 31.4528 107.696 31.0368 107.888C30.6208 108.069 30.1034 108.16 29.4848 108.16ZM27.0208 103.04H31.6448C31.6234 102.485 31.5061 102.037 31.2928 101.696C31.0794 101.344 30.8074 101.083 30.4768 100.912C30.1461 100.741 29.7941 100.656 29.4208 100.656C28.7488 100.656 28.1994 100.875 27.7728 101.312C27.3461 101.739 27.0954 102.315 27.0208 103.04ZM38.3306 108.16C37.456 108.16 36.7946 107.936 36.3466 107.488C35.9093 107.04 35.6906 106.411 35.6906 105.6V100.768H34.1706V99.52H35.6906V97.392H37.2106V99.52H39.2746V100.768H37.2106V105.6C37.2106 106.027 37.328 106.341 37.5626 106.544C37.7973 106.736 38.1386 106.832 38.5866 106.832C38.8213 106.832 39.0453 106.816 39.2586 106.784C39.472 106.752 39.5786 106.736 39.5786 106.736V108.032C39.5786 108.032 39.456 108.053 39.2106 108.096C38.9653 108.139 38.672 108.16 38.3306 108.16ZM42.2464 97.904C41.9584 97.904 41.7184 97.808 41.5264 97.616C41.345 97.424 41.2544 97.1947 41.2544 96.928C41.2544 96.6507 41.345 96.416 41.5264 96.224C41.7184 96.032 41.9584 95.936 42.2464 95.936C42.5237 95.936 42.7584 96.032 42.9504 96.224C43.1424 96.416 43.2384 96.6507 43.2384 96.928C43.2384 97.1947 43.1424 97.424 42.9504 97.616C42.7584 97.808 42.5237 97.904 42.2464 97.904ZM41.4944 108V99.52H43.0144V108H41.4944ZM47.8251 108L44.5931 99.52H46.1771L48.6571 106.144L51.0891 99.52H52.6891L49.4411 108H47.8251ZM57.4194 99.36C57.9527 99.36 58.4007 99.4453 58.7634 99.616C59.126 99.7867 59.4194 99.9893 59.6434 100.224C59.8674 100.448 60.038 100.661 60.1554 100.864H60.2514V99.52H61.7714V108H60.2514V106.656H60.1554C60.038 106.859 59.8674 107.077 59.6434 107.312C59.4194 107.547 59.126 107.749 58.7634 107.92C58.4007 108.08 57.9527 108.16 57.4194 108.16C56.7794 108.16 56.2194 108.037 55.7394 107.792C55.2594 107.536 54.8594 107.2 54.5394 106.784C54.2194 106.357 53.9794 105.883 53.8194 105.36C53.6594 104.837 53.5794 104.304 53.5794 103.76C53.5794 103.216 53.6594 102.683 53.8194 102.16C53.9794 101.637 54.2194 101.168 54.5394 100.752C54.8594 100.325 55.2594 99.9893 55.7394 99.744C56.2194 99.488 56.7794 99.36 57.4194 99.36ZM57.6754 100.656C57.11 100.656 56.6354 100.811 56.2514 101.12C55.8674 101.419 55.5794 101.803 55.3874 102.272C55.206 102.741 55.1154 103.237 55.1154 103.76C55.1154 104.272 55.206 104.768 55.3874 105.248C55.5794 105.717 55.8674 106.107 56.2514 106.416C56.6354 106.715 57.11 106.864 57.6754 106.864C58.2407 106.864 58.71 106.715 59.0834 106.416C59.4674 106.107 59.75 105.717 59.9314 105.248C60.1234 104.768 60.2194 104.272 60.2194 103.76C60.2194 103.237 60.1234 102.741 59.9314 102.272C59.75 101.803 59.4674 101.419 59.0834 101.12C58.71 100.811 58.2407 100.656 57.6754 100.656ZM70.1565 108.16C69.5058 108.16 68.9672 108.069 68.5405 107.888C68.1245 107.707 67.7938 107.483 67.5485 107.216C67.3032 106.939 67.1218 106.667 67.0045 106.4C66.8872 106.123 66.8125 105.893 66.7805 105.712C66.7485 105.531 66.7325 105.44 66.7325 105.44H68.2685C68.2685 105.44 68.2845 105.515 68.3165 105.664C68.3592 105.803 68.4392 105.968 68.5565 106.16C68.6845 106.341 68.8765 106.507 69.1325 106.656C69.3992 106.795 69.7512 106.864 70.1885 106.864C70.6898 106.864 71.0792 106.747 71.3565 106.512C71.6338 106.267 71.7725 105.968 71.7725 105.616C71.7725 105.307 71.6605 105.061 71.4365 104.88C71.2232 104.699 70.9138 104.56 70.5085 104.464L69.3565 104.192C68.9298 104.085 68.5298 103.941 68.1565 103.76C67.7832 103.579 67.4792 103.333 67.2445 103.024C67.0205 102.704 66.9085 102.309 66.9085 101.84C66.9085 101.115 67.1805 100.523 67.7245 100.064C68.2685 99.5947 68.9778 99.36 69.8525 99.36C70.4392 99.36 70.9245 99.4453 71.3085 99.616C71.6925 99.776 71.9965 99.9787 72.2205 100.224C72.4552 100.469 72.6258 100.715 72.7325 100.96C72.8498 101.205 72.9245 101.413 72.9565 101.584C72.9885 101.744 73.0045 101.824 73.0045 101.824H71.5325C71.5325 101.824 71.5165 101.765 71.4845 101.648C71.4525 101.52 71.3778 101.381 71.2605 101.232C71.1538 101.072 70.9885 100.933 70.7645 100.816C70.5405 100.688 70.2418 100.624 69.8685 100.624C69.3565 100.624 68.9832 100.741 68.7485 100.976C68.5138 101.211 68.3965 101.467 68.3965 101.744C68.3965 102.011 68.5032 102.229 68.7165 102.4C68.9405 102.56 69.2285 102.683 69.5805 102.768L70.7485 103.04C71.4738 103.211 72.0712 103.493 72.5405 103.888C73.0205 104.272 73.2605 104.827 73.2605 105.552C73.2605 106.021 73.1378 106.459 72.8925 106.864C72.6472 107.259 72.2952 107.573 71.8365 107.808C71.3778 108.043 70.8178 108.16 70.1565 108.16ZM78.5573 108.16C77.8639 108.16 77.2613 108.037 76.7493 107.792C76.2479 107.536 75.8319 107.195 75.5013 106.768C75.1813 106.341 74.9413 105.872 74.7813 105.36C74.6213 104.837 74.5413 104.304 74.5413 103.76C74.5413 103.227 74.6159 102.699 74.7653 102.176C74.9253 101.653 75.1653 101.179 75.4853 100.752C75.8159 100.325 76.2266 99.9893 76.7173 99.744C77.2186 99.488 77.8106 99.36 78.4933 99.36C79.2186 99.36 79.8586 99.5253 80.4133 99.856C80.9679 100.187 81.4053 100.677 81.7253 101.328C82.0453 101.979 82.2053 102.795 82.2053 103.776V104.224H76.0773C76.1093 104.704 76.2213 105.147 76.4133 105.552C76.6159 105.947 76.8986 106.267 77.2613 106.512C77.6239 106.747 78.0559 106.864 78.5573 106.864C78.9946 106.864 79.3466 106.795 79.6133 106.656C79.8906 106.507 80.1093 106.336 80.2693 106.144C80.4293 105.952 80.5359 105.787 80.5893 105.648C80.6533 105.499 80.6853 105.424 80.6853 105.424H82.1093C82.1093 105.424 82.0826 105.52 82.0293 105.712C81.9759 105.893 81.8799 106.117 81.7413 106.384C81.6026 106.651 81.3999 106.923 81.1333 107.2C80.8666 107.467 80.5253 107.696 80.1093 107.888C79.6933 108.069 79.1759 108.16 78.5573 108.16ZM76.0933 103.04H80.7173C80.6959 102.485 80.5786 102.037 80.3653 101.696C80.1519 101.344 79.8799 101.083 79.5493 100.912C79.2186 100.741 78.8666 100.656 78.4933 100.656C77.8213 100.656 77.2719 100.875 76.8453 101.312C76.4186 101.739 76.1679 102.315 76.0933 103.04ZM83.9594 108V99.52H85.4794V100.576H85.5434C85.7247 100.256 85.9914 99.9733 86.3434 99.728C86.6954 99.4827 87.1914 99.36 87.8314 99.36C88.0127 99.36 88.178 99.3707 88.3274 99.392C88.4767 99.4027 88.5514 99.408 88.5514 99.408V100.864C88.5514 100.864 88.466 100.859 88.2954 100.848C88.1354 100.827 87.9647 100.816 87.7834 100.816C87.0474 100.816 86.4767 101.029 86.0714 101.456C85.6767 101.872 85.4794 102.555 85.4794 103.504V108H83.9594ZM91.073 108.16C90.7743 108.16 90.5237 108.059 90.321 107.856C90.129 107.643 90.033 107.397 90.033 107.12C90.033 106.832 90.129 106.587 90.321 106.384C90.5237 106.181 90.7743 106.08 91.073 106.08C91.3717 106.08 91.617 106.181 91.809 106.384C92.0117 106.587 92.113 106.832 92.113 107.12C92.113 107.408 92.0117 107.653 91.809 107.856C91.617 108.059 91.3717 108.16 91.073 108.16Z" fill="white"/>
<defs>
<clipPath id="clip0_84_1672">
<rect width="170" height="56" fill="white"/>
</clipPath>
</defs>
</svg>
