<svg width="30" height="30" viewBox="0 0 30 30" fill="none" xmlns="http://www.w3.org/2000/svg">
<path fill-rule="evenodd" clip-rule="evenodd" d="M26.1587 19.9989V10.0014C26.1587 9.10762 25.6825 8.28262 24.9087 7.83637L16.2512 2.83762C15.4775 2.39137 14.525 2.39137 13.7513 2.83762L5.09375 7.83637C4.32 8.28262 3.84375 9.10887 3.84375 10.0014V19.9976C3.84375 20.8914 4.32 21.7164 5.09375 22.1626L13.7513 27.1626C14.525 27.6089 15.4775 27.6089 16.2512 27.1626L24.9087 22.1639C25.6825 21.7176 26.1587 20.8914 26.1587 19.9989Z" stroke="#FF8D00" stroke-width="2" stroke-linecap="round" stroke-linejoin="round"/>
<path d="M7.71289 15.7881L11.4629 17.9631" stroke="#FF8D00" stroke-width="2" stroke-linecap="round" stroke-linejoin="round"/>
<path d="M4.17773 8.75195L15.0002 15.0007L25.8227 8.75195" stroke="#FF8D00" stroke-width="2" stroke-linecap="round" stroke-linejoin="round"/>
<path d="M15 27.5V15" stroke="#FF8D00" stroke-width="2" stroke-linecap="round" stroke-linejoin="round"/>
<path d="M20.4133 11.8754L9.42578 5.33789" stroke="#FF8D00" stroke-width="2" stroke-linecap="round" stroke-linejoin="round"/>
</svg>
