<svg width="24" height="24" viewBox="0 0 24 24" fill="none" xmlns="http://www.w3.org/2000/svg">
<path d="M21.002 11.5V9.5C21.002 8.11929 19.8827 7 18.502 7H5.50195C4.12124 7 3.00195 8.11929 3.00195 9.5V18.5C3.00195 19.8807 4.12124 21 5.50195 21H18.502C19.8827 21 21.002 19.8807 21.002 18.5V16.5" stroke="#FF8D00" stroke-width="1.49938" stroke-linecap="round" stroke-linejoin="round"/>
<path d="M18.5018 6.95324L16.137 3.80014C15.5001 2.95097 14.3108 2.74724 13.4276 3.33604L7.93164 7" stroke="#FF8D00" stroke-width="1.49938" stroke-linecap="round" stroke-linejoin="round"/>
<path fill-rule="evenodd" clip-rule="evenodd" d="M18.5 11.5H21C21.5523 11.5 22 11.9477 22 12.5V15.5C22 16.0523 21.5523 16.5 21 16.5H18.5C17.1193 16.5 16 15.3807 16 14V14C16 12.6193 17.1193 11.5 18.5 11.5V11.5Z" stroke="#FF8D00" stroke-width="1.49938" stroke-linecap="round" stroke-linejoin="round"/>
</svg>
