<svg width="81" height="80" viewBox="0 0 81 80" fill="none" xmlns="http://www.w3.org/2000/svg">
<rect x="0.490234" width="80" height="80" rx="16" fill="#FFD89D"/>
<path fill-rule="evenodd" clip-rule="evenodd" d="M44.4473 30.7742L49.72 36.0469L36.5368 49.2301L31.264 43.9574L44.4473 30.7742Z" stroke="#3A2506" stroke-width="2" stroke-linecap="round" stroke-linejoin="round"/>
<path fill-rule="evenodd" clip-rule="evenodd" d="M23.3542 38.6836C24.082 37.9559 25.2618 37.9559 25.9895 38.6836L41.8102 54.5043C42.5379 55.232 42.5379 56.4118 41.8102 57.1395L40.4909 58.4588C39.7632 59.1865 38.5834 59.1865 37.8556 58.4588L22.035 42.6381C21.3073 41.9104 21.3073 40.7306 22.035 40.0029L23.3542 38.6836Z" stroke="#3A2506" stroke-width="2" stroke-linecap="round" stroke-linejoin="round"/>
<path fill-rule="evenodd" clip-rule="evenodd" d="M23.3542 46.5945C24.082 45.8668 25.2618 45.8668 25.9895 46.5945L33.9011 54.5061C34.6288 55.2338 34.6288 56.4136 33.9011 57.1414L32.5818 58.4606C31.8541 59.1883 30.6743 59.1883 29.9466 58.4606L22.035 50.549C21.3073 49.8213 21.3073 48.6415 22.035 47.9138L23.3542 46.5945Z" stroke="#3A2506" stroke-width="2" stroke-linecap="round" stroke-linejoin="round"/>
<path fill-rule="evenodd" clip-rule="evenodd" d="M57.6301 41.3228C56.9024 42.0505 55.7226 42.0505 54.9949 41.3227L39.1742 25.5021C38.4465 24.7744 38.4465 23.5945 39.1742 22.8668L40.4935 21.5475C41.2212 20.8198 42.401 20.8198 43.1287 21.5475L58.9494 37.3682C59.6771 38.0959 59.6771 39.2758 58.9494 40.0035L57.6301 41.3228Z" stroke="#3A2506" stroke-width="2" stroke-linecap="round" stroke-linejoin="round"/>
<path fill-rule="evenodd" clip-rule="evenodd" d="M57.6301 33.4104C56.9024 34.1381 55.7226 34.1381 54.9949 33.4104L47.0833 25.4988C46.3556 24.7711 46.3556 23.5912 47.0833 22.8635L48.4025 21.5443C49.1303 20.8165 50.3101 20.8165 51.0378 21.5443L58.9494 29.4559C59.6771 30.1836 59.6771 31.3634 58.9494 32.0911L57.6301 33.4104Z" stroke="#3A2506" stroke-width="2" stroke-linecap="round" stroke-linejoin="round"/>
</svg>
