<svg width="81" height="80" viewBox="0 0 81 80" fill="none" xmlns="http://www.w3.org/2000/svg">
<rect x="0.419922" width="80" height="80" rx="16" fill="#FFD89D"/>
<path d="M43.3517 52.9322C43.742 52.5414 43.7415 51.9082 43.3507 51.518C42.9599 51.1277 42.3267 51.1282 41.9365 51.519L43.3517 52.9322ZM40.4219 57.5921L39.4219 57.5916V57.5921H40.4219ZM39.4219 60.0044C39.4219 60.5567 39.8696 61.0044 40.4219 61.0044C40.9742 61.0044 41.4219 60.5567 41.4219 60.0044H39.4219ZM41.9365 51.519C40.3274 53.1305 39.4231 55.3143 39.4219 57.5916L41.4219 57.5927C41.4228 55.8449 42.1168 54.1689 43.3517 52.9322L41.9365 51.519ZM39.4219 57.5921V60.0044H41.4219V57.5921H39.4219Z" fill="#3A2506"/>
<path d="M38.9069 51.519C38.5166 51.1282 37.8835 51.1277 37.4926 51.518C37.1018 51.9082 37.1014 52.5414 37.4916 52.9322L38.9069 51.519ZM40.4214 57.5921H41.4214L41.4214 57.5916L40.4214 57.5921ZM39.4214 60.0044C39.4214 60.5567 39.8692 61.0044 40.4214 61.0044C40.9737 61.0044 41.4214 60.5567 41.4214 60.0044H39.4214ZM37.4916 52.9322C38.7265 54.1689 39.4205 55.8449 39.4214 57.5927L41.4214 57.5916C41.4202 55.3143 40.5159 53.1305 38.9069 51.519L37.4916 52.9322ZM39.4214 57.5921V60.0044H41.4214V57.5921H39.4214Z" fill="#3A2506"/>
<path d="M50.924 40.2244C44.1772 42.8906 36.6687 42.8906 29.9219 40.2244" stroke="#3A2506" stroke-width="2" stroke-linecap="round" stroke-linejoin="round"/>
<path d="M54.4238 33.0018H60.4244" stroke="#3A2506" stroke-width="2" stroke-linecap="round" stroke-linejoin="round"/>
<path d="M57.4241 36.0021L54.4238 33.0018L57.4241 30.0015" stroke="#3A2506" stroke-width="2" stroke-linecap="round" stroke-linejoin="round"/>
<path d="M26.4225 33.0018H20.4219" stroke="#3A2506" stroke-width="2" stroke-linecap="round" stroke-linejoin="round"/>
<path d="M23.4219 30.0015L26.4222 33.0018L23.4219 36.0021" stroke="#3A2506" stroke-width="2" stroke-linecap="round" stroke-linejoin="round"/>
<path d="M51.5347 20.0005L50.3346 23.3168C48.2666 29.0036 48.6282 35.2905 51.3347 40.7026V40.7026C54.2783 46.5916 54.4345 53.4882 51.7607 59.5045L51.5407 60.0026" stroke="#3A2506" stroke-width="2" stroke-linecap="round" stroke-linejoin="round"/>
<path d="M29.3088 20.0005L30.5089 23.3168C32.5769 29.0036 32.2153 35.2905 29.5088 40.7026V40.7026C26.5652 46.5916 26.4089 53.4882 29.0827 59.5045L29.3028 60.0026" stroke="#3A2506" stroke-width="2" stroke-linecap="round" stroke-linejoin="round"/>
<path d="M31.4434 26.6671H49.4012" stroke="#3A2506" stroke-width="2" stroke-linecap="round" stroke-linejoin="round"/>
</svg>
