<svg width="133" height="90" viewBox="0 0 133 90" fill="none" xmlns="http://www.w3.org/2000/svg">
<path fill-rule="evenodd" clip-rule="evenodd" d="M119.657 35.9798C127.628 53.4052 123.802 70.631 106.55 79.3857C79.7579 92.9385 38.4767 87.4237 16.6771 65.2224C11.8452 60.3128 4.9068 54.3623 3.3791 43.7552C1.95622 33.8912 6.70659 26.0672 13.302 20.1549C20.0473 14.0826 28.7186 9.98609 35.0157 7.79094C62.5242 -1.76584 105.468 0.417443 129.858 27.7555C130.366 28.3054 131.153 28.366 131.648 27.91C132.142 27.454 132.18 26.6665 131.715 26.143C106.608 -1.99589 62.4002 -4.433 34.0882 5.40118C26.2464 8.14466 14.841 13.7451 7.61448 22.3105C2.69012 28.1736 -0.310833 35.3986 0.894947 43.9955C2.50429 55.2834 9.80725 61.7272 14.9337 66.944C37.437 89.8672 80.0934 95.6453 107.735 81.6304C126.294 72.2304 130.487 53.7442 121.911 35.01C119.311 29.273 116.384 23.9034 111.002 20.2683C110.408 19.8679 109.627 20.0045 109.291 20.5935C108.912 21.1562 109.105 21.9495 109.655 22.3234C114.613 25.6729 117.224 30.6703 119.657 35.9798Z" fill="#FF8D00"/>
</svg>
