<svg width="65" height="65" viewBox="0 0 65 65" fill="none" xmlns="http://www.w3.org/2000/svg">
<path fill-rule="evenodd" clip-rule="evenodd" d="M8.2761 9.08529C8.32265 7.42529 7.05811 6.04521 5.45322 5.99521C3.84735 5.94521 2.50716 7.25525 2.45964 8.91525C2.23273 16.9753 2.41603 24.6452 0.519244 32.6052C0.135233 34.2152 1.09043 35.8452 2.64975 36.2352C4.2081 36.6352 5.78581 35.6452 6.16885 34.0352C8.16746 25.6552 8.03658 17.5853 8.2761 9.08529Z" fill="#FF8D00"/>
<path fill-rule="evenodd" clip-rule="evenodd" d="M58.4121 4.45542C59.1908 3.00542 58.6836 1.17534 57.2794 0.375343C55.8752 -0.424656 54.1026 0.0953865 53.3239 1.54539C44.6895 17.5954 32.3342 33.4954 19.2235 45.8454C18.0385 46.9654 17.9561 48.8654 19.0393 50.0854C20.1225 51.3054 21.964 51.3954 23.149 50.2754C36.7077 37.4954 49.4828 21.0554 58.4121 4.45542Z" fill="#FF8D00"/>
<path fill-rule="evenodd" clip-rule="evenodd" d="M63.0419 57.6553C64.513 56.9853 65.184 55.2154 64.5411 53.7054C63.8972 52.1854 62.1798 51.4953 60.7087 52.1553C50.4393 56.7953 38.8249 60.2354 27.5306 58.3154C25.946 58.0454 24.4478 59.1553 24.1869 60.7853C23.9251 62.4153 24.9996 63.9653 26.5831 64.2353C38.984 66.3453 51.7659 62.7453 63.0419 57.6553Z" fill="#FF8D00"/>
</svg>
