<svg width="169" height="206" viewBox="0 0 169 206" fill="none" xmlns="http://www.w3.org/2000/svg">
<g opacity="0.1">
<circle cx="3" cy="202" r="4" fill="#FF8D00"/>
<circle cx="21" cy="202" r="4" fill="#FF8D00"/>
<circle cx="39" cy="202" r="4" fill="#FF8D00"/>
<circle cx="57" cy="202" r="4" fill="#FF8D00"/>
<circle cx="75" cy="202" r="4" fill="#FF8D00"/>
<circle cx="93" cy="202" r="4" fill="#FF8D00"/>
<circle cx="111" cy="202" r="4" fill="#FF8D00"/>
<circle cx="129" cy="202" r="4" fill="#FF8D00"/>
<circle cx="147" cy="202" r="4" fill="#FF8D00"/>
<circle cx="165" cy="202" r="4" fill="#FF8D00"/>
</g>
<g opacity="0.1">
<circle cx="3" cy="184" r="4" fill="#FF8D00"/>
<circle cx="21" cy="184" r="4" fill="#FF8D00"/>
<circle cx="39" cy="184" r="4" fill="#FF8D00"/>
<circle cx="57" cy="184" r="4" fill="#FF8D00"/>
<circle cx="75" cy="184" r="4" fill="#FF8D00"/>
<circle cx="93" cy="184" r="4" fill="#FF8D00"/>
<circle cx="111" cy="184" r="4" fill="#FF8D00"/>
<circle cx="129" cy="184" r="4" fill="#FF8D00"/>
<circle cx="147" cy="184" r="4" fill="#FF8D00"/>
<circle cx="165" cy="184" r="4" fill="#FF8D00"/>
</g>
<g opacity="0.1">
<circle cx="3" cy="166" r="4" fill="#FF8D00"/>
<circle cx="21" cy="166" r="4" fill="#FF8D00"/>
<circle cx="39" cy="166" r="4" fill="#FF8D00"/>
<circle cx="57" cy="166" r="4" fill="#FF8D00"/>
<circle cx="75" cy="166" r="4" fill="#FF8D00"/>
<circle cx="93" cy="166" r="4" fill="#FF8D00"/>
<circle cx="111" cy="166" r="4" fill="#FF8D00"/>
<circle cx="129" cy="166" r="4" fill="#FF8D00"/>
<circle cx="147" cy="166" r="4" fill="#FF8D00"/>
<circle cx="165" cy="166" r="4" fill="#FF8D00"/>
</g>
<g opacity="0.1">
<circle cx="3" cy="148" r="4" fill="#FF8D00"/>
<circle cx="21" cy="148" r="4" fill="#FF8D00"/>
<circle cx="39" cy="148" r="4" fill="#FF8D00"/>
<circle cx="57" cy="148" r="4" fill="#FF8D00"/>
<circle cx="75" cy="148" r="4" fill="#FF8D00"/>
<circle cx="93" cy="148" r="4" fill="#FF8D00"/>
<circle cx="111" cy="148" r="4" fill="#FF8D00"/>
<circle cx="129" cy="148" r="4" fill="#FF8D00"/>
<circle cx="147" cy="148" r="4" fill="#FF8D00"/>
<circle cx="165" cy="148" r="4" fill="#FF8D00"/>
</g>
<g opacity="0.1">
<circle cx="3" cy="130" r="4" fill="#FF8D00"/>
<circle cx="21" cy="130" r="4" fill="#FF8D00"/>
<circle cx="39" cy="130" r="4" fill="#FF8D00"/>
<circle cx="57" cy="130" r="4" fill="#FF8D00"/>
<circle cx="75" cy="130" r="4" fill="#FF8D00"/>
<circle cx="93" cy="130" r="4" fill="#FF8D00"/>
<circle cx="111" cy="130" r="4" fill="#FF8D00"/>
<circle cx="129" cy="130" r="4" fill="#FF8D00"/>
<circle cx="147" cy="130" r="4" fill="#FF8D00"/>
<circle cx="165" cy="130" r="4" fill="#FF8D00"/>
</g>
<g opacity="0.1">
<circle cx="3" cy="112" r="4" fill="#FF8D00"/>
<circle cx="21" cy="112" r="4" fill="#FF8D00"/>
<circle cx="39" cy="112" r="4" fill="#FF8D00"/>
<circle cx="57" cy="112" r="4" fill="#FF8D00"/>
<circle cx="75" cy="112" r="4" fill="#FF8D00"/>
<circle cx="93" cy="112" r="4" fill="#FF8D00"/>
<circle cx="111" cy="112" r="4" fill="#FF8D00"/>
<circle cx="129" cy="112" r="4" fill="#FF8D00"/>
<circle cx="147" cy="112" r="4" fill="#FF8D00"/>
<circle cx="165" cy="112" r="4" fill="#FF8D00"/>
</g>
<g opacity="0.1">
<circle cx="3" cy="94" r="4" fill="#FF8D00"/>
<circle cx="21" cy="94" r="4" fill="#FF8D00"/>
<circle cx="39" cy="94" r="4" fill="#FF8D00"/>
<circle cx="57" cy="94" r="4" fill="#FF8D00"/>
<circle cx="75" cy="94" r="4" fill="#FF8D00"/>
<circle cx="93" cy="94" r="4" fill="#FF8D00"/>
<circle cx="111" cy="94" r="4" fill="#FF8D00"/>
<circle cx="129" cy="94" r="4" fill="#FF8D00"/>
<circle cx="147" cy="94" r="4" fill="#FF8D00"/>
<circle cx="165" cy="94" r="4" fill="#FF8D00"/>
</g>
<g opacity="0.1">
<circle cx="3" cy="76" r="4" fill="#FF8D00"/>
<circle cx="21" cy="76" r="4" fill="#FF8D00"/>
<circle cx="39" cy="76" r="4" fill="#FF8D00"/>
<circle cx="57" cy="76" r="4" fill="#FF8D00"/>
<circle cx="75" cy="76" r="4" fill="#FF8D00"/>
<circle cx="93" cy="76" r="4" fill="#FF8D00"/>
<circle cx="111" cy="76" r="4" fill="#FF8D00"/>
<circle cx="129" cy="76" r="4" fill="#FF8D00"/>
<circle cx="147" cy="76" r="4" fill="#FF8D00"/>
<circle cx="165" cy="76" r="4" fill="#FF8D00"/>
</g>
<g opacity="0.1">
<circle cx="3" cy="58" r="4" fill="#FF8D00"/>
<circle cx="21" cy="58" r="4" fill="#FF8D00"/>
<circle cx="39" cy="58" r="4" fill="#FF8D00"/>
<circle cx="57" cy="58" r="4" fill="#FF8D00"/>
<circle cx="75" cy="58" r="4" fill="#FF8D00"/>
<circle cx="93" cy="58" r="4" fill="#FF8D00"/>
<circle cx="111" cy="58" r="4" fill="#FF8D00"/>
<circle cx="129" cy="58" r="4" fill="#FF8D00"/>
<circle cx="147" cy="58" r="4" fill="#FF8D00"/>
<circle cx="165" cy="58" r="4" fill="#FF8D00"/>
</g>
<g opacity="0.1">
<circle cx="3" cy="40" r="4" fill="#FF8D00"/>
<circle cx="21" cy="40" r="4" fill="#FF8D00"/>
<circle cx="39" cy="40" r="4" fill="#FF8D00"/>
<circle cx="57" cy="40" r="4" fill="#FF8D00"/>
<circle cx="75" cy="40" r="4" fill="#FF8D00"/>
<circle cx="93" cy="40" r="4" fill="#FF8D00"/>
<circle cx="111" cy="40" r="4" fill="#FF8D00"/>
<circle cx="129" cy="40" r="4" fill="#FF8D00"/>
<circle cx="147" cy="40" r="4" fill="#FF8D00"/>
<circle cx="165" cy="40" r="4" fill="#FF8D00"/>
</g>
<g opacity="0.1">
<circle cx="3" cy="22" r="4" fill="#FF8D00"/>
<circle cx="21" cy="22" r="4" fill="#FF8D00"/>
<circle cx="39" cy="22" r="4" fill="#FF8D00"/>
<circle cx="57" cy="22" r="4" fill="#FF8D00"/>
<circle cx="75" cy="22" r="4" fill="#FF8D00"/>
<circle cx="93" cy="22" r="4" fill="#FF8D00"/>
<circle cx="111" cy="22" r="4" fill="#FF8D00"/>
<circle cx="129" cy="22" r="4" fill="#FF8D00"/>
<circle cx="147" cy="22" r="4" fill="#FF8D00"/>
<circle cx="165" cy="22" r="4" fill="#FF8D00"/>
</g>
<g opacity="0.1">
<circle cx="3" cy="4" r="4" fill="#FF8D00"/>
<circle cx="21" cy="4" r="4" fill="#FF8D00"/>
<circle cx="39" cy="4" r="4" fill="#FF8D00"/>
<circle cx="57" cy="4" r="4" fill="#FF8D00"/>
<circle cx="75" cy="4" r="4" fill="#FF8D00"/>
<circle cx="93" cy="4" r="4" fill="#FF8D00"/>
<circle cx="111" cy="4" r="4" fill="#FF8D00"/>
<circle cx="129" cy="4" r="4" fill="#FF8D00"/>
<circle cx="147" cy="4" r="4" fill="#FF8D00"/>
<circle cx="165" cy="4" r="4" fill="#FF8D00"/>
</g>
</svg>
