<svg width="165" height="109" viewBox="0 0 165 109" fill="none" xmlns="http://www.w3.org/2000/svg">
<path fill-rule="evenodd" clip-rule="evenodd" d="M148.98 44.3497C158.935 65.4505 154.156 86.3098 132.613 96.911C99.1573 113.323 47.6081 106.644 20.3863 79.7603C14.3525 73.8151 5.68826 66.6095 3.78057 53.7651C2.00377 41.8205 7.93571 32.3462 16.1717 25.1868C24.5947 17.8337 35.4228 12.8731 43.2862 10.215C77.637 -1.3576 131.263 1.2862 161.719 34.3906C162.353 35.0565 163.336 35.1299 163.954 34.5777C164.571 34.0255 164.618 33.072 164.038 32.438C132.686 -1.63618 77.4822 -4.58734 42.128 7.32114C32.3357 10.6433 18.0934 17.425 9.06942 27.7971C2.92021 34.8969 -0.82717 43.6458 0.678525 54.056C2.68817 67.7248 11.8076 75.5279 18.2091 81.8451C46.3098 109.603 99.5762 116.6 134.094 99.6292C157.268 88.2464 162.504 65.8611 151.795 43.1752C148.548 36.2282 144.893 29.726 138.173 25.3241C137.432 24.8393 136.455 25.0047 136.036 25.718C135.563 26.3993 135.804 27.36 136.491 27.8128C142.682 31.8687 145.942 37.9202 148.98 44.3497Z" fill="#070C17"/>
</svg>
