<svg width="26" height="28" viewBox="0 0 26 28" fill="none" xmlns="http://www.w3.org/2000/svg">
<path fill-rule="evenodd" clip-rule="evenodd" d="M24.1587 18.9989V9.00137C24.1587 8.10762 23.6825 7.28262 22.9087 6.83637L14.2512 1.83762C13.4775 1.39137 12.525 1.39137 11.7513 1.83762L3.09375 6.83637C2.32 7.28262 1.84375 8.10887 1.84375 9.00137V18.9976C1.84375 19.8914 2.32 20.7164 3.09375 21.1626L11.7513 26.1626C12.525 26.6089 13.4775 26.6089 14.2512 26.1626L22.9087 21.1639C23.6825 20.7176 24.1587 19.8914 24.1587 18.9989Z" stroke="#ADB5BD" stroke-width="2" stroke-linecap="round" stroke-linejoin="round"/>
<path d="M5.71289 14.7881L9.46289 16.9631" stroke="#ADB5BD" stroke-width="2" stroke-linecap="round" stroke-linejoin="round"/>
<path d="M2.17773 7.75195L13.0002 14.0007L23.8227 7.75195" stroke="#ADB5BD" stroke-width="2" stroke-linecap="round" stroke-linejoin="round"/>
<path d="M13 26.5V14" stroke="#ADB5BD" stroke-width="2" stroke-linecap="round" stroke-linejoin="round"/>
<path d="M18.4133 10.8754L7.42578 4.33789" stroke="#ADB5BD" stroke-width="2" stroke-linecap="round" stroke-linejoin="round"/>
</svg>
