<svg width="42" height="33" viewBox="0 0 42 33" fill="none" xmlns="http://www.w3.org/2000/svg">
<path d="M24.5355 14.4645C26.4881 16.4171 26.4881 19.5829 24.5355 21.5355C22.5829 23.4881 19.4171 23.4881 17.4645 21.5355C15.5118 19.5829 15.5118 16.4171 17.4645 14.4645C19.4171 12.5118 22.5829 12.5118 24.5355 14.4645" stroke="#FF8D00" stroke-width="2" stroke-linecap="round" stroke-linejoin="round"/>
<path d="M35.5082 2.46447C37.4608 4.41709 37.4608 7.58291 35.5082 9.53553C33.5556 11.4881 30.3897 11.4881 28.4371 9.53553C26.4845 7.5829 26.4845 4.41709 28.4371 2.46447C30.3897 0.511844 33.5556 0.511844 35.5082 2.46447" stroke="#FF8D00" stroke-width="2" stroke-linecap="round" stroke-linejoin="round"/>
<path d="M33 17C36.066 17 39 18.066 41 19.666" stroke="#FF8D00" stroke-width="2" stroke-linecap="round" stroke-linejoin="round"/>
<path d="M13.5629 2.46447C15.5155 4.41709 15.5155 7.58291 13.5629 9.53553C11.6102 11.4881 8.44443 11.4881 6.49181 9.53553C4.53919 7.5829 4.53919 4.41709 6.49181 2.46447C8.44443 0.511844 11.6102 0.511844 13.5629 2.46447" stroke="#FF8D00" stroke-width="2" stroke-linecap="round" stroke-linejoin="round"/>
<path d="M1 19.666C3 18.066 5.934 17 9 17" stroke="#FF8D00" stroke-width="2" stroke-linecap="round" stroke-linejoin="round"/>
<path d="M30.1824 32C27.8524 30.198 24.5044 29 21.0004 29C17.4964 29 14.1484 30.198 11.8184 32" stroke="#FF8D00" stroke-width="2" stroke-linecap="round" stroke-linejoin="round"/>
</svg>
