<svg width="98" height="98" viewBox="0 0 98 98" fill="none" xmlns="http://www.w3.org/2000/svg">
<mask id="mask0_84_1219" style="mask-type:alpha" maskUnits="userSpaceOnUse" x="0" y="0" width="98" height="98">
<rect width="98" height="98" fill="white"/>
</mask>
<g mask="url(#mask0_84_1219)">
<path fill-rule="evenodd" clip-rule="evenodd" d="M3.68126 77.9571C2.94009 78.0459 2.40719 78.7188 2.496 79.46C2.5848 80.2012 3.25763 80.734 3.9988 80.6452C48.3701 75.416 90.6783 52.1664 97.5982 4.79631C97.7075 4.05855 97.1952 3.37203 96.454 3.26274C95.7162 3.15344 95.0298 3.6658 94.9205 4.40698C88.1885 50.486 46.8434 72.868 3.68126 77.9571Z" fill="#FF8D00"/>
<path fill-rule="evenodd" clip-rule="evenodd" d="M9.26891 75.8626C16.5816 70.3089 22.6408 63.9184 27.9758 56.4213C28.4096 55.8134 28.2661 54.9663 27.6581 54.5325C27.0502 54.0988 26.2032 54.2423 25.7694 54.8502C20.5983 62.1219 14.7236 68.3211 7.62952 73.7074C7.21624 74.0216 1.75471 77.9187 0.709552 78.7897C0.279194 79.1449 0.146081 79.4796 0.122173 79.5616C-0.0212801 79.992 0.0640817 80.3301 0.18021 80.576C0.313416 80.8527 0.644636 81.2557 1.28676 81.4607C1.95962 81.6724 3.45569 81.7681 3.8314 81.8227C9.49778 82.663 15.8951 83.107 21.7186 84.7191C27.2723 86.2561 32.3101 88.8587 35.5412 94.0742C35.934 94.7095 36.7708 94.9042 37.4061 94.5114C38.0414 94.1186 38.2361 93.2819 37.8434 92.6466C34.2297 86.8162 28.6486 83.8276 22.4426 82.1096C16.6532 80.5077 10.3141 80.0227 4.6511 79.2064C6.57063 77.8026 8.99908 76.0675 9.26891 75.8626Z" fill="#FF8D00"/>
</g>
</svg>
