<svg width="906" height="180" viewBox="0 0 906 180" fill="none" xmlns="http://www.w3.org/2000/svg">
<path opacity="0.6" d="M0.800781 107.917C36.5039 56.3436 139.2 -15.8597 264.362 107.917C420.813 262.639 447.29 107.917 562.823 107.917C678.357 107.917 751.769 186.468 831.198 107.917L904.61 35.3174" stroke="#342413" stroke-width="0.998668"/>
<path opacity="0.6" d="M904.609 107.98C868.906 54.7156 766.21 -19.855 641.048 107.98C484.597 267.775 458.12 107.98 342.587 107.98C227.053 107.98 153.641 189.107 74.2118 107.98L0.79983 33" stroke="url(#paint0_linear_84_1466)" stroke-width="0.998668"/>
<path opacity="0.6" d="M0.800781 75.9174C36.5039 24.3436 139.2 -47.8597 264.362 75.9174C420.813 230.639 447.29 75.9174 562.823 75.9174C678.357 75.9174 751.769 154.468 831.198 75.9174L904.61 3.31738" stroke="#30394F" stroke-opacity="0.65" stroke-width="0.998668"/>
<path opacity="0.6" d="M904.609 75.9804C868.906 22.7156 766.21 -51.855 641.048 75.9804C484.597 235.775 458.12 75.9804 342.587 75.9804C227.053 75.9804 153.641 157.107 74.2118 75.9804L0.799805 1" stroke="#30394F" stroke-opacity="0.65" stroke-width="0.998668"/>
<defs>
<linearGradient id="paint0_linear_84_1466" x1="904.609" y1="67.4632" x2="327.764" y2="173.802" gradientUnits="userSpaceOnUse">
<stop stop-color="#FF8D00"/>
<stop offset="0.807002" stop-color="#FF8D00" stop-opacity="0.35"/>
<stop offset="1" stop-color="#FF8D00" stop-opacity="0.3"/>
</linearGradient>
</defs>
</svg>
