<svg width="89" height="24" viewBox="0 0 89 24" fill="none" xmlns="http://www.w3.org/2000/svg">
<path fill-rule="evenodd" clip-rule="evenodd" d="M12.8008 17.235L6.97978 20L8.18878 13.88L3.80078 9.392L9.97978 8.621L12.8008 3L15.6218 8.621L21.8008 9.392L17.4128 13.88L18.6218 20L12.8008 17.235Z" fill="#FF8D00"/>
<path fill-rule="evenodd" clip-rule="evenodd" d="M44.8008 17.235L38.9798 20L40.1888 13.88L35.8008 9.392L41.9798 8.621L44.8008 3L47.6218 8.621L53.8008 9.392L49.4128 13.88L50.6218 20L44.8008 17.235Z" fill="#FF8D00"/>
<path fill-rule="evenodd" clip-rule="evenodd" d="M76.8008 17.235L70.9798 20L72.1888 13.88L67.8008 9.392L73.9798 8.621L76.8008 3L79.6218 8.621L85.8008 9.392L81.4128 13.88L82.6218 20L76.8008 17.235Z" fill="#FF8D00"/>
</svg>
